<svg xmlns="http://www.w3.org/2000/svg" width="1024" height="1024" viewBox="0 0 1024 1024" version="1.1">
	<path d="M 288.378 225.369 C 277.009 230.563, 280.352 241.409, 297.789 255.907 C 311.589 267.380, 325.298 274, 335.258 274 C 337.047 274, 338.910 274.935, 340.298 276.529 C 341.509 277.921, 345.417 280.959, 348.981 283.281 C 357.255 288.670, 358.675 291.323, 364.359 312 C 373.232 344.280, 376.503 350.440, 386.500 353.690 C 390.687 355.052, 390.778 357.317, 386.704 358.790 C 378.230 361.854, 376.402 368.121, 380.482 380.127 L 383.232 388.218 379.940 392.859 C 368.240 409.353, 355.108 428.342, 347.519 439.739 L 338.704 452.977 333.602 450.068 C 296.230 428.759, 242.805 423.512, 201 437.044 C 158.444 450.819, 118.490 485.049, 100.621 523.043 C 88.465 548.891, 84.599 566.951, 84.575 598 C 84.555 623.166, 85.781 631.428, 92.587 652 C 114.874 719.367, 178.557 768.315, 247 770.687 C 307.090 772.768, 357.226 747.530, 389.403 699 L 395.039 690.500 414.270 690.764 C 424.846 690.909, 442.152 691.306, 452.727 691.646 L 471.955 692.264 473.875 697.382 C 474.930 700.197, 476.903 705.003, 478.259 708.061 L 480.723 713.622 477.897 715.244 C 471.152 719.116, 474.077 725.804, 483.744 728.614 C 491.734 730.937, 507.732 730.655, 513.533 728.089 C 521.084 724.748, 522.990 716.497, 517.253 711.984 C 515.180 710.353, 513.193 710, 506.101 710 L 497.471 710 495.241 699.250 C 494.015 693.337, 492.761 687.600, 492.456 686.500 C 492.024 684.944, 492.741 684.056, 495.689 682.500 C 511.964 673.907, 522.759 651.065, 520.208 630.620 L 519.099 621.740 527.435 612.620 C 532.020 607.604, 557.521 578.750, 584.104 548.500 C 696.429 420.679, 694.265 423, 701.101 423 C 705.831 423, 707 424.827, 707 432.216 C 707 435.158, 707.659 440.025, 708.463 443.032 C 710.156 449.355, 710.987 448.230, 698.853 456.050 C 669.444 475.006, 641.990 511.103, 631.200 545 C 608.552 616.149, 634.676 691.853, 698.282 739.395 C 737.924 769.026, 787.815 775.793, 839.500 758.548 C 932.127 727.643, 973.838 617.963, 928.507 524.500 C 895.041 455.500, 817.204 417.574, 746.045 435.594 C 740.844 436.911, 736.299 437.654, 735.946 437.245 C 732.196 432.907, 712.743 370.970, 709.014 351.500 C 707.855 345.450, 706.681 339.323, 706.404 337.885 C 705.726 334.363, 702.468 331.044, 699.012 330.352 C 696.013 329.753, 695.038 327.823, 695.014 322.441 C 694.992 317.543, 696.815 316.101, 705 314.541 C 709.125 313.755, 717.225 312.137, 723 310.947 C 728.775 309.756, 734.625 308.840, 736 308.911 C 737.375 308.982, 745.025 309.011, 753 308.975 C 774.196 308.880, 782.447 312.028, 787.585 322.169 C 794.723 336.254, 787.046 353.073, 769.866 360.992 C 763.779 363.798, 756.981 365.495, 743.600 367.548 C 732.911 369.189, 729.998 383.594, 739.548 387.585 C 752.790 393.117, 784.982 381.719, 798.835 366.593 C 807.357 357.289, 809.500 350.738, 809.500 334 C 809.500 318.176, 810.273 315.290, 815.643 311.067 C 823.580 304.823, 832 309.628, 832 320.403 C 832 322.309, 831.294 327.161, 830.432 331.185 C 828.292 341.169, 828.226 350.704, 830.271 354.602 C 834.824 363.281, 845.821 367.255, 849.548 361.567 C 851.330 358.848, 850.701 356.902, 846.351 351.673 C 843.555 348.312, 843.385 344.714, 845.500 333.662 C 847.462 323.407, 847.402 312.510, 845.336 304.287 C 843.766 298.038, 843.775 297.142, 845.484 288.450 C 848.270 274.278, 846.786 268.568, 838.908 263.161 C 836.112 261.242, 834.554 260.898, 830.228 261.245 C 823.819 261.759, 820.195 264.774, 815.958 273.117 C 812.884 279.170, 808.444 283.552, 804.173 284.750 C 798.847 286.244, 776.839 285.491, 768 283.513 C 750.975 279.702, 735.844 281.729, 731.469 288.406 C 729.858 290.865, 729.322 291, 721.135 291.007 C 707.538 291.017, 677.543 293.745, 673.850 295.307 C 665.074 299.019, 663.995 305.564, 669.886 319.352 C 672.149 324.648, 674 330.226, 674 331.747 C 674 333.269, 674.410 335.944, 674.912 337.693 C 675.809 340.821, 675.749 340.898, 671.162 342.481 C 665.015 344.603, 650.089 345.743, 619 346.465 C 604.975 346.791, 558.850 347.982, 516.500 349.112 C 432.895 351.343, 394.562 351.878, 393.503 350.830 C 393.130 350.461, 390.621 339.886, 387.927 327.330 C 377.887 280.540, 375.153 272.081, 367.969 265.591 C 365.786 263.619, 364 261.811, 364 261.574 C 364 261.338, 366.587 260.176, 369.749 258.993 C 377.739 256.003, 386.656 255.506, 398.239 257.404 C 418.716 260.759, 429.506 257.090, 429.215 246.869 C 428.895 235.587, 417.266 232.263, 382.630 233.555 C 341.562 235.086, 336.744 234.708, 316.723 228.391 C 303.763 224.301, 293.185 223.174, 288.378 225.369 M 291.500 228.661 C 282.387 231.147, 285.120 239.735, 298.652 251.132 C 312.974 263.195, 322.856 268.473, 332.460 269.190 C 336.247 269.473, 336.452 269.336, 337.121 266.065 C 338.367 259.969, 346.345 256.621, 354.356 258.833 C 357.496 259.700, 358.635 259.507, 362.262 257.498 C 372.149 252.021, 383.957 250.839, 401.275 253.592 C 417.001 256.092, 425.485 253.595, 424.805 246.666 C 424.035 238.828, 412.652 236.325, 383.500 237.582 C 342.965 239.329, 336.212 238.809, 315.554 232.351 C 304.849 229.004, 295.501 227.570, 291.500 228.661 M 344.796 263.147 C 342.307 264.057, 340.144 267.477, 341.315 268.649 C 342.166 269.499, 353.056 263.899, 352.452 262.922 C 351.734 261.760, 348.312 261.861, 344.796 263.147 M 355.500 266.646 C 354.400 267.516, 351.133 269.337, 348.239 270.692 C 342.069 273.583, 342.108 273.711, 350.948 279.535 C 360.356 285.733, 362.245 289.070, 368.084 309.805 C 376.191 338.596, 379.212 345.507, 384.995 348.497 C 388.768 350.449, 388.875 351.937, 383.430 326.690 C 374.014 283.027, 371.083 273.914, 364.630 268.248 C 360.530 264.649, 358.479 264.289, 355.500 266.646 M 825.152 267.526 C 823.364 269.030, 820.751 272.564, 819.346 275.380 C 815.686 282.710, 811.407 286.802, 805.596 288.527 C 798.459 290.647, 782.175 290.408, 769.785 288.003 C 756.412 285.406, 744.929 285.395, 739.250 287.973 C 735.155 289.832, 733.580 292, 736.326 292 C 740.304 292, 743.762 300.838, 740.903 303.697 C 740.106 304.494, 744.426 304.900, 756.653 305.177 C 775.833 305.613, 779.660 306.696, 786.459 313.614 C 801.467 328.884, 794.397 354.572, 772.410 364.664 C 766.279 367.478, 752.936 371, 748.405 371 C 738.225 371, 733.682 381.090, 742.546 384.015 C 754.216 387.867, 781.132 377.971, 794.091 365.065 C 803.606 355.588, 805.180 350.949, 805.361 331.836 C 805.500 317.211, 805.508 317.162, 808.542 312.845 C 814.055 304.999, 821.631 302.308, 828.726 305.674 C 835.486 308.882, 837.602 318.896, 834.500 333 C 830.945 349.162, 834.720 360, 843.904 360 C 846.811 360, 846.526 358.363, 842.901 354.234 C 839.402 350.250, 839.281 346.052, 842.092 326.247 C 843.178 318.596, 843.177 315.825, 842.086 310.247 C 839.812 298.615, 839.700 294.007, 841.505 286.339 C 843.556 277.630, 842.957 273.103, 839.196 268.894 C 835.215 264.439, 829.484 263.880, 825.152 267.526 M 693.785 296.598 C 667.623 298.787, 667.061 299.613, 675.826 323 C 676.960 326.025, 678.170 330.664, 678.514 333.310 C 679.221 338.740, 679.323 338.756, 686.602 334.538 L 691.703 331.582 691.229 324.954 C 690.403 313.418, 691.934 312.316, 713.950 308.605 C 730.562 305.804, 731.777 305.320, 730.093 302.173 C 729.492 301.050, 729 298.977, 729 297.566 L 729 295 719.250 295.141 C 713.888 295.219, 702.428 295.874, 693.785 296.598 M 733 297.066 C 733 300.686, 734.921 303.310, 736.570 301.942 C 738.498 300.342, 738.370 298.644, 736.171 296.655 C 733.756 294.470, 733 294.568, 733 297.066 M 698.596 337.878 C 700.362 348.920, 685.956 355.447, 679.299 346.621 C 677.564 344.322, 677.534 344.319, 673.528 346.087 C 666.559 349.163, 654.260 349.937, 587.500 351.497 C 551.750 352.333, 498.650 353.694, 469.500 354.523 C 440.350 355.351, 411.325 356.135, 405 356.265 L 393.500 356.500 397.173 358.327 C 401.186 360.324, 404.503 365.840, 403.531 368.902 C 402.153 373.243, 410.879 373.148, 581.500 366.966 C 670.193 363.752, 675.400 363.913, 684.164 370.125 C 687.818 372.715, 691 379.696, 691 385.119 C 691 392.622, 687.090 398.682, 672.155 414.323 C 653.587 433.769, 637.485 451.639, 603.966 490 C 571.510 527.143, 551.275 549.962, 525.486 578.500 C 515.545 589.500, 507.060 599.076, 506.629 599.780 C 506.137 600.583, 506.990 602.363, 508.916 604.558 C 510.606 606.482, 512.946 609.956, 514.117 612.278 C 515.288 614.600, 516.413 616.685, 516.617 616.911 C 517.351 617.723, 521.722 612.978, 552.004 578.500 C 568.911 559.250, 589.860 535.400, 598.556 525.500 C 685.437 426.590, 690.690 420.969, 698.077 418.979 C 706.879 416.609, 710.689 421.135, 711.892 435.388 C 712.322 440.490, 712.965 445.135, 713.320 445.709 C 713.733 446.376, 717.181 445.443, 722.862 443.127 L 731.758 439.500 727.771 428.500 C 715.462 394.537, 707.393 367.505, 704.043 349 C 701.845 336.859, 701.360 335.352, 699.415 334.606 C 698.269 334.166, 698.107 334.816, 698.596 337.878 M 687 338.994 C 681.702 342.509, 681.400 343.905, 685.573 345.607 C 690.917 347.788, 695.628 343.498, 694.201 337.750 C 693.595 335.310, 692.186 335.554, 687 338.994 M 385.511 364.170 C 382.947 366.186, 382.789 366.733, 383.265 371.920 C 383.546 374.989, 384.389 378.956, 385.138 380.736 L 386.500 383.972 391.358 378.434 C 395.940 373.211, 396.122 372.793, 394.560 371.067 C 393.649 370.060, 392.455 367.608, 391.905 365.618 C 390.753 361.448, 389.370 361.134, 385.511 364.170 M 395 362.550 C 395 364.510, 398.440 369.312, 398.763 367.802 C 399.190 365.807, 397.354 362, 395.965 362 C 395.434 362, 395 362.247, 395 362.550 M 569 371.493 C 485.930 374.582, 431.993 376.249, 417.336 376.179 L 405.173 376.120 407.512 384.810 C 419.535 429.486, 428.386 461.229, 435.867 486.500 C 458.274 562.198, 456.161 555.824, 459.274 557.113 C 464.733 559.375, 466.841 568.390, 463.040 573.222 C 461.590 575.065, 461.228 576.629, 461.649 579.223 L 462.218 582.732 470.359 583.254 C 480.137 583.881, 489.104 587.202, 496.841 593.061 C 499.778 595.286, 502.512 596.970, 502.917 596.803 C 504.329 596.222, 560.299 533.419, 607.014 480 C 638.438 444.066, 652.527 428.532, 670.218 410.313 C 678.807 401.468, 682.764 396.574, 684.645 392.465 C 688.838 383.305, 686.723 376.041, 678.597 371.692 C 672.841 368.612, 647.689 368.566, 569 371.493 M 398 376.930 C 397.175 377.950, 394.655 381.038, 392.400 383.792 L 388.301 388.799 398.064 418.149 C 403.434 434.292, 413.525 465.950, 420.488 488.500 C 427.452 511.050, 435.049 535.575, 437.371 543 L 441.593 556.500 444.931 556.168 C 452.489 555.416, 452.734 557.904, 441.367 520 C 425.130 465.853, 410.953 415.665, 402.458 382.250 C 400.463 374.404, 400.249 374.149, 398 376.930 M 375.898 405.951 C 359.938 428.665, 343 453.821, 343 454.810 C 343 456.078, 349.162 460.018, 350.170 459.395 C 350.587 459.137, 354.410 453.881, 358.665 447.713 C 371.484 429.134, 383.816 412.338, 386.906 409.247 L 389.821 406.333 387.661 400.166 C 386.473 396.775, 385.230 394, 384.898 394 C 384.567 394, 380.517 399.378, 375.898 405.951 M 388.103 414.199 C 380.281 423.899, 353.985 461.292, 354.024 462.661 C 354.037 463.123, 355.883 464.850, 358.127 466.500 C 365.042 471.584, 385.138 493.105, 392.264 503.055 C 408.834 526.193, 421.199 559.173, 422.746 584.355 L 423.289 593.209 427.112 592.598 C 429.215 592.262, 432.004 591.500, 433.311 590.904 L 435.687 589.821 433.692 581.627 C 431.419 572.295, 431.810 568.033, 435.426 562.704 L 437.799 559.207 425.359 518.854 C 409.033 465.898, 392.025 412.663, 391.176 411.863 C 390.804 411.513, 389.421 412.564, 388.103 414.199 M 224.500 435.616 C 165.875 446.139, 114.951 489.079, 97.149 543 C 67.553 632.643, 115.146 728.219, 204.651 758.887 C 271.275 781.714, 348.791 754.890, 386.192 696.066 L 389.901 690.232 379.700 689.614 C 374.090 689.274, 357.800 688.550, 343.500 688.004 C 276.609 685.450, 262.953 684.798, 255.500 683.801 C 251.100 683.212, 245.185 682.678, 242.356 682.615 C 231.958 682.382, 229.546 673.908, 237.375 665.113 C 238.744 663.575, 239.088 662.578, 238.342 662.310 C 234.935 661.088, 228.249 655.712, 226.535 652.818 C 224.016 648.562, 223.963 637.563, 226.429 630.630 L 228.161 625.761 225.137 622.630 C 220.543 617.874, 218.040 611.458, 218.066 604.500 C 218.118 590.277, 224.813 582.378, 241.388 576.986 C 252.678 573.313, 252.989 572.953, 294.108 516 C 318.936 481.611, 336 457.390, 336 456.535 C 336 455.615, 318.702 447.326, 311 444.556 C 284.875 435.158, 248.176 431.366, 224.500 435.616 M 769.500 435.629 C 756.945 436.991, 738 441.355, 738 442.884 C 738 443.676, 752.475 483.113, 777.744 551.160 L 789.500 582.820 793.176 583.928 C 804.546 587.355, 807.304 604.696, 797.963 614.037 C 784.357 627.643, 763.744 609.785, 773.667 592.987 C 775.236 590.330, 775.020 589.816, 758.252 556.396 C 735.781 511.607, 728.194 495.351, 718.986 472.262 L 711.314 453.025 702.407 458.907 C 631.247 505.900, 607.634 595.620, 646.191 672.500 C 663.935 707.880, 698.599 740.336, 733.595 754.338 C 781.968 773.691, 847.846 761.394, 889.138 725.302 C 974.240 650.918, 954.193 503.825, 851.956 452.478 C 827.984 440.439, 792.326 433.152, 769.500 435.629 M 727.945 445.450 C 721.948 447.660, 716 450.983, 716 452.125 C 716 453.885, 725.789 478.389, 732.529 493.500 C 737.726 505.152, 777.415 585.748, 778.481 586.814 C 778.664 586.997, 780.229 586.416, 781.958 585.522 C 785.672 583.601, 786.034 585.437, 777.523 563 C 774.081 553.925, 762.786 523.438, 752.422 495.250 C 742.058 467.063, 733.111 444.032, 732.540 444.070 C 731.968 444.109, 729.900 444.730, 727.945 445.450 M 338.722 460.250 C 338.452 460.938, 333.316 468.475, 327.309 477 C 317.031 491.588, 309.531 502.020, 276.990 547 C 259.426 571.277, 252.718 578.090, 243.723 580.789 C 234.227 583.638, 228.511 587.273, 225.531 592.358 C 220.724 600.559, 221.294 610.535, 227.013 618.326 L 229.822 622.152 233.958 616.062 C 237.854 610.324, 238.004 609.844, 236.547 607.763 C 234.489 604.826, 234.581 598.048, 236.719 594.973 C 241.068 588.719, 247.472 586.414, 258.041 587.300 C 262.419 587.667, 265 587.511, 265 586.880 C 265 583.964, 271.480 573.123, 282.701 557.264 C 311.988 515.874, 321.471 502.265, 334.014 483.629 C 341.305 472.798, 347.096 463.805, 346.885 463.644 C 340.982 459.166, 339.406 458.511, 338.722 460.250 M 333.629 491.750 C 324.397 505.363, 311.402 524.150, 304.752 533.500 C 278.615 570.249, 274.873 575.716, 271.764 581.688 C 269.992 585.091, 268.758 588.084, 269.021 588.338 C 270.460 589.729, 297.086 591.076, 341 591.979 C 368.225 592.539, 395.351 593.193, 401.281 593.431 C 407.210 593.669, 413.682 593.601, 415.662 593.280 L 419.262 592.696 418.587 584.598 C 416.101 554.755, 401.700 520.666, 380.947 495.500 C 372.841 485.671, 353.336 467, 351.173 467 C 350.756 467, 342.861 478.137, 333.629 491.750 M 448.500 559.738 C 443.504 560.469, 442.795 561.679, 444.923 565.848 C 447.230 570.368, 449.644 572.528, 453.386 573.419 C 456.254 574.102, 456.269 574.082, 455.645 570.303 C 454.686 564.489, 452.986 558.983, 452.203 559.150 C 451.816 559.232, 450.150 559.497, 448.500 559.738 M 458.633 563.500 C 459.898 569.214, 460.866 570.869, 460.937 567.441 C 460.971 565.759, 460.318 563.509, 459.485 562.441 C 458.057 560.612, 458.008 560.673, 458.633 563.500 M 437.445 567.478 C 435.890 571.199, 435.895 571.988, 437.519 579.728 C 438.474 584.277, 439.489 588, 439.775 588 C 440.061 588, 442.816 587.130, 445.897 586.068 C 448.979 585.005, 452.738 583.871, 454.250 583.549 C 458.849 582.567, 458.206 577.526, 453.468 577.424 C 448.830 577.324, 445.112 574.453, 441.803 568.418 L 439.107 563.500 437.445 567.478 M 448.519 589.780 C 440.928 592.367, 440.497 592.676, 439.708 596.085 C 439.252 598.057, 436.380 602.993, 433.325 607.054 C 425.768 617.099, 422.786 622.778, 419.002 634.329 L 415.782 644.158 418.721 647.032 C 420.697 648.963, 422.065 651.715, 422.895 655.423 C 424.797 663.920, 429.415 672.157, 435.510 677.921 C 442.734 684.753, 448.273 687.114, 458.592 687.757 C 470.339 688.490, 470.395 688.445, 467.307 680.661 L 464.746 674.208 461.405 675.604 C 444.902 682.500, 426.050 660.101, 428.256 636.219 C 431.165 604.740, 463.231 589.125, 487.270 607.480 L 491.736 610.890 495.906 605.763 L 500.077 600.636 497.288 598.363 C 484.016 587.544, 464.933 584.185, 448.519 589.780 M 782.854 589.930 L 780.500 591.848 782.407 595.424 C 785.183 600.626, 787 600.086, 787 594.059 C 787 588.247, 786.063 587.314, 782.854 589.930 M 791.405 592.134 C 793.232 603.554, 785.178 608.139, 779.631 598.838 L 777.222 594.797 776.055 598.334 C 771.558 611.961, 789.451 620.897, 797.032 608.810 C 799.986 604.100, 799.442 594.163, 796.030 590.532 C 792.314 586.576, 790.611 587.166, 791.405 592.134 M 247.333 592.097 C 241.536 593.776, 237.373 600.885, 239.875 604.832 C 240.535 605.873, 241.329 605.599, 243.506 603.582 C 248.772 598.702, 256 601.915, 256 609.135 C 256 610.711, 256.172 612, 256.381 612 C 256.591 612, 266.154 613.356, 277.631 615.013 C 303.804 618.791, 327.742 623.655, 373.459 634.483 C 393.236 639.167, 409.962 643, 410.627 643 C 411.293 643, 412.839 639.962, 414.065 636.250 C 415.290 632.538, 416.521 628.882, 416.801 628.126 C 417.167 627.135, 416.556 627.245, 414.612 628.519 C 410.303 631.342, 396.650 629.958, 361.500 623.135 C 344.450 619.825, 320.600 615.273, 308.500 613.019 C 267.334 605.351, 264 604.043, 264 595.559 C 264 592.406, 263.810 592.246, 259.360 591.636 C 253.600 590.846, 251.357 590.932, 247.333 592.097 M 268 594.777 C 268 601.093, 269.140 601.403, 344.500 615.594 C 400.677 626.172, 409.841 627.359, 413.036 624.468 C 415.530 622.210, 417.704 614.721, 418.569 605.402 L 419.228 598.304 395.364 597.621 C 382.239 597.245, 352.150 596.499, 328.500 595.962 C 304.850 595.425, 282.575 594.548, 279 594.013 C 269.564 592.601, 268 592.709, 268 594.777 M 428.827 596.369 C 422.945 597.793, 423.386 597.048, 422.669 606.768 L 422.060 615.035 427.019 608.768 C 433.083 601.105, 436.578 594.950, 434.770 595.119 C 434.072 595.184, 431.397 595.747, 428.827 596.369 M 455.994 604.934 C 427.946 613.466, 423.957 661.416, 450.453 671.535 C 456.079 673.684, 463.622 672.230, 462.675 669.180 C 462.389 668.256, 461.004 664.350, 459.598 660.500 C 458.192 656.650, 457.033 652.273, 457.021 650.774 C 457.009 649.275, 456.102 646.575, 455.004 644.774 C 452.380 640.471, 452.387 633.728, 455.019 629.469 C 458.123 624.446, 463.578 622.702, 473.574 623.535 L 481.744 624.215 485.458 619.358 L 489.172 614.500 485.439 611.267 C 478.402 605.173, 464.816 602.251, 455.994 604.934 M 499.101 608.731 C 494.029 614.648, 494.030 614.681, 499.436 620.486 C 504.193 625.594, 506.315 625.925, 511.754 622.407 L 514.008 620.949 511.605 616.224 C 510.283 613.626, 507.849 609.804, 506.195 607.731 L 503.188 603.962 499.101 608.731 M 246.675 606.807 C 244.714 608.974, 245.376 610, 248.736 610 C 250.634 610, 251.072 609.543, 250.820 607.828 C 250.394 604.939, 248.735 604.530, 246.675 606.807 M 237.380 618.483 C 232.297 626.138, 233.974 627.517, 244.607 624.426 C 262.276 619.289, 265.262 637.573, 249.923 656.979 L 246.001 661.940 248.109 665.985 C 250.032 669.674, 250.188 672.737, 248.706 677.670 C 248.088 679.725, 264.135 680.744, 348 683.973 C 363.125 684.556, 379.325 685.296, 384 685.618 L 392.500 686.203 398.143 674.852 C 404.454 662.156, 410.502 648.142, 409.897 647.614 C 409.679 647.423, 402.300 645.586, 393.500 643.532 C 319.987 626.367, 306.918 623.615, 279.500 619.529 C 262.131 616.940, 248.029 614.547, 243.613 613.439 C 241.454 612.897, 240.664 613.537, 237.380 618.483 M 488.712 622.105 C 484.769 627.803, 480.488 629.393, 473.040 627.928 C 463.324 626.017, 456.965 629.696, 457.015 637.200 C 457.041 641.077, 458.586 642.642, 459.922 640.145 C 462.598 635.146, 471.937 633.445, 477.635 636.919 C 481.665 639.376, 483.187 643.489, 487.397 663.294 C 489.243 671.980, 491.003 679.336, 491.307 679.640 C 491.611 679.944, 493.804 678.844, 496.180 677.196 C 509.925 667.663, 517.014 651.794, 516.149 632.500 C 515.878 626.459, 514.918 625.474, 511.182 627.406 C 505.286 630.455, 499.128 628.255, 494.781 621.546 C 491.972 617.210, 492.108 617.197, 488.712 622.105 M 246 628.510 C 241.730 630.142, 236.521 630.349, 233.976 628.987 C 231.182 627.492, 229.845 630.764, 229.311 640.410 C 228.768 650.217, 230.274 653.298, 237.437 657.033 L 242.167 659.500 245.679 655.500 C 258.620 640.759, 258.824 623.608, 246 628.510 M 464.455 641.455 C 461.300 644.609, 461.361 645.786, 464.750 647.146 C 470.812 649.577, 471.917 650.386, 473.108 653.260 C 474.591 656.842, 473.114 663.865, 469.961 668.214 L 467.994 670.927 470.883 678.214 C 472.634 682.631, 474.426 685.631, 475.435 685.833 C 477.205 686.187, 487 682.985, 487 682.052 C 487 680.661, 479.846 648.139, 478.905 645.253 C 476.814 638.836, 469.100 636.809, 464.455 641.455 M 410.488 658.250 C 408.399 663.337, 404.707 671.484, 402.283 676.354 C 399.859 681.224, 398.138 685.472, 398.460 685.793 C 398.782 686.115, 408.125 686.578, 419.222 686.821 L 439.399 687.264 433.215 681.538 C 427.024 675.806, 419 662.437, 419 657.852 C 419 655.242, 416.316 649, 415.193 649 C 414.694 649, 412.576 653.163, 410.488 658.250 M 462.621 656.096 C 463.477 658.978, 464.623 662.498, 465.169 663.918 L 466.160 666.500 467.610 663.753 C 469.283 660.585, 469.753 654.328, 468.413 653.069 C 467.911 652.597, 466.052 651.906, 464.282 651.533 L 461.065 650.855 462.621 656.096 M 239.589 669.077 C 236.557 672.679, 236.234 676.520, 238.845 677.917 C 243.081 680.184, 246.666 673.505, 244.393 667.582 C 243.516 665.295, 242.506 665.609, 239.589 669.077 M 481.500 688.789 C 478.750 689.667, 476.357 690.480, 476.182 690.594 C 476.007 690.709, 477.749 695.624, 480.053 701.517 L 484.242 712.231 488.204 711.700 C 490.382 711.407, 492.403 710.931, 492.693 710.641 C 493.211 710.122, 489.237 689.213, 488.341 687.750 C 487.768 686.814, 487.599 686.840, 481.500 688.789 M 497.451 717.464 C 494.958 723.429, 490.074 724.652, 485.538 720.448 C 482.534 717.664, 479.709 717.555, 479.199 720.204 C 478.503 723.820, 484.482 725.500, 498.045 725.500 C 512.554 725.500, 516 724.255, 516 719.012 C 516 715.105, 513.688 714, 505.515 714 C 498.911 714, 498.895 714.007, 497.451 717.464 M 488.653 715.867 C 486.983 716.525, 486.958 716.720, 488.390 717.909 C 490.287 719.483, 493 718.673, 493 716.531 C 493 714.898, 491.643 714.691, 488.653 715.867" stroke="none" fill="#2f6b4f" fill-rule="evenodd"/>
</svg>