<svg xmlns="http://www.w3.org/2000/svg" width="1024" height="1024" viewBox="0 0 1024 1024" version="1.1">
	<path d="M 509.455 93.455 C 506.587 96.322, 506.329 100.394, 508.453 109.282 C 510.225 116.700, 508.043 125.700, 504.241 126.654 C 499.375 127.876, 496.432 135.201, 498.930 139.869 C 499.680 141.270, 498.970 142.276, 495.269 145.054 C 483.495 153.892, 485.458 163.162, 498.374 159.720 C 506.966 157.430, 519.385 157.446, 524 159.752 C 529.584 162.541, 531.290 167.296, 532.162 182.500 C 533.039 197.792, 532.818 199, 529.133 199 C 524.448 199, 524 197.648, 524 183.523 C 524 168.786, 523.056 166, 518.066 166 C 513.650 166, 512.667 168.179, 512.056 179.325 C 511.600 187.648, 511.205 189.535, 509.865 189.791 C 508.457 190.059, 508.178 188.668, 507.847 179.729 C 507.388 167.331, 505.872 163.987, 500.727 164.022 C 492.675 164.078, 490.728 168.692, 491.144 186.733 L 491.478 201.242 485.338 203.127 C 471.181 207.473, 468.357 218, 481.349 218 C 488.965 218, 493.342 214.618, 494.516 207.825 C 495.220 203.750, 495.321 203.712, 509 202.473 C 517.222 201.728, 535.828 203.414, 542.915 205.546 C 551.552 208.145, 556.041 213.945, 552.750 218.254 C 551.619 219.736, 550.981 219.754, 546.032 218.445 C 538.595 216.479, 530.585 216.557, 528.527 218.616 C 523.043 224.100, 538.176 229.282, 548.697 225.523 C 565.273 219.600, 597.952 249.692, 611.541 283.393 C 619.065 302.053, 623.656 326.453, 621.099 334.199 L 619.929 337.745 608.714 333.963 C 566.846 319.845, 518.216 316.676, 453.378 323.843 L 438.257 325.515 441.229 320.248 C 445.386 312.882, 446.802 307.529, 448.550 292.569 C 451.550 266.900, 456.761 253.494, 469.503 238.661 C 477.515 229.334, 478.918 226.309, 477.091 222.300 C 475.536 218.887, 470.282 219.438, 459.419 224.155 C 434.054 235.168, 411.420 259.136, 401.091 285.920 C 397.420 295.439, 392.011 322.147, 391.968 330.962 L 391.937 337.500 387.482 340.203 C 380.807 344.254, 378.858 348.039, 379.194 356.299 L 379.472 363.099 374.014 366.083 C 366.828 370.013, 364.200 372.601, 362.863 377.062 C 360.877 383.690, 365.649 391.870, 372.505 393.591 C 376.042 394.478, 376.333 395.986, 376.779 415.750 C 377.147 432.064, 377.019 434, 375.573 434 C 372.431 434, 361.350 439.740, 359.189 442.486 C 355.826 446.762, 356.798 454, 360.735 454 C 363.285 454, 361.040 455.591, 356.500 457.001 C 349.001 459.329, 338.804 465.273, 336.871 468.443 C 332.574 475.490, 336.382 484.070, 345.619 488.156 L 349.738 489.978 350.843 500.739 C 352.881 520.594, 352.806 552.611, 350.717 554.709 C 349.166 556.268, 346.376 556.572, 329.217 557.053 C 307.474 557.663, 304.298 558.453, 302.083 563.799 C 299.557 569.898, 303.398 575.155, 312.820 578.491 C 317.995 580.324, 318.583 580.839, 319.434 584.282 C 321.242 591.599, 324.867 591.218, 255.084 591.053 L 192.940 590.907 189.970 593.876 C 183.857 599.989, 186.373 611.398, 195.774 620.192 C 200.348 624.470, 200.610 624.961, 199.119 626.455 C 197.239 628.337, 197.240 647.408, 199.127 727.643 C 200.031 766.089, 199.986 774.256, 198.856 776.603 C 197.411 779.607, 192.853 783.232, 184.093 788.344 C 176.135 792.989, 175 795.756, 175 810.512 C 175 826.922, 174.584 827.509, 163.597 826.621 C 159.144 826.261, 151.675 825.537, 147 825.013 C 137.183 823.913, 119.209 825.155, 111.402 827.473 C 105.765 829.147, 98 834.284, 98 836.340 C 98 839.010, 99.365 838.887, 102.755 835.910 C 111.151 828.538, 133.356 825.944, 157.257 829.542 C 162.890 830.390, 169.090 830.817, 171.033 830.491 C 173.717 830.040, 175.651 830.505, 179.087 832.425 C 185.814 836.185, 194.220 836.958, 228.583 836.980 C 245.679 836.991, 259.907 837.240, 260.200 837.533 C 260.493 837.827, 259.218 839.582, 257.367 841.433 C 251.226 847.574, 253.798 855, 262.066 855 C 267.171 855, 269.570 853.732, 271.490 850.020 C 273.412 846.303, 273.409 843.028, 271.480 840.275 C 270.020 838.191, 270.110 838.064, 273.730 837.058 C 279.658 835.412, 279.767 835.490, 278.901 840.750 C 277.388 849.943, 277.771 853.804, 280.364 855.503 C 282.956 857.201, 586.376 857.795, 709.492 856.343 L 766.483 855.671 769.213 852.941 C 770.911 851.243, 772.199 848.608, 772.621 845.970 L 773.299 841.728 783.400 842.388 C 788.955 842.751, 796.200 843.449, 799.500 843.940 C 819.581 846.924, 845.208 843.782, 853.841 837.277 C 856.818 835.034, 857.449 834.902, 859.631 836.070 C 863.390 838.082, 870.313 837.500, 883.996 834.022 C 912.092 826.881, 932.026 827.611, 944.202 836.225 C 945.138 836.887, 946.206 837.127, 946.576 836.758 C 948.096 835.237, 945.760 833.008, 939.334 829.846 L 932.531 826.500 916.015 826.528 C 900.323 826.555, 898.762 826.742, 884.678 830.278 C 860.902 836.248, 858.986 835.662, 859.020 822.421 C 859.031 818.065, 859.446 811.693, 859.943 808.261 C 861.551 797.141, 858.855 792.821, 846.603 786.886 C 832.129 779.875, 832.058 779.447, 831.080 694 C 830.643 655.816, 829.971 630.565, 829.353 629.096 C 828.508 627.086, 828.877 625.898, 831.612 621.834 C 835.206 616.493, 836.503 610.592, 835.768 602.934 C 835.220 597.230, 833.104 594.399, 828.424 593.107 C 825.721 592.360, 725.189 593.395, 716 594.264 C 714.063 594.447, 713.426 593.980, 713.173 592.192 C 712.584 588.038, 715.474 585.376, 724.188 582.048 C 733.496 578.494, 735.680 576.908, 737.638 572.282 C 739.763 567.263, 739.350 563.259, 736.404 560.313 L 733.807 557.716 707.605 558.432 C 682.345 559.122, 681.315 559.076, 678.952 557.152 L 676.500 555.156 676.670 533.828 C 676.930 501.245, 677.600 494.317, 680.568 493.572 C 686.605 492.057, 693 483.532, 693 477 C 693 469.519, 689.657 465.669, 679.615 461.588 C 674.978 459.704, 674.345 459.135, 675.192 457.622 C 678.521 451.673, 670.118 443.416, 656.792 439.542 L 651.144 437.900 652.822 434.200 C 654.201 431.160, 654.505 427.106, 654.527 411.476 L 654.553 392.453 657.272 388.887 C 664.918 378.864, 661.943 369.499, 648.931 362.626 C 645.889 361.019, 645.443 360.339, 645.807 357.862 C 646.786 351.188, 641.725 346.068, 629.640 341.509 C 624.162 339.443, 623.554 338.940, 624 336.847 C 626.204 326.504, 623.766 308.167, 617.865 290.687 C 606.666 257.517, 582.623 229.869, 557.864 221.691 C 556.569 221.263, 556.333 220.227, 556.729 216.715 C 557.572 209.231, 552.290 204.211, 540.785 201.563 L 536.070 200.477 535.602 185.989 L 535.133 171.500 538.067 167.572 C 544.133 159.448, 540.798 148.078, 530.915 143.188 C 526.617 141.061, 526.614 141.057, 526.884 135.972 C 527.225 129.546, 525.280 126.331, 520.508 125.435 C 516.353 124.656, 515.909 121.608, 518.500 111.661 C 522.570 96.035, 517.360 85.549, 509.455 93.455 M 513.185 94.720 C 510.452 95.738, 510.016 99.791, 511.751 108.044 C 513.314 115.477, 513.321 116.453, 511.847 120.553 C 510.605 124.005, 510.535 125, 511.530 125 C 512.324 125, 513.070 123.001, 513.490 119.750 C 513.863 116.862, 514.805 111.960, 515.584 108.856 C 517.898 99.631, 516.834 93.360, 513.185 94.720 M 509.143 129.076 C 503.317 130.221, 502 131.521, 502 136.122 L 502 140 512.421 140 L 522.841 140 523.495 137.022 C 525.188 129.317, 520.662 126.811, 509.143 129.076 M 506.803 143.357 C 498.362 145.706, 489.945 152.807, 491.328 156.413 C 491.800 157.642, 492.692 157.620, 497.688 156.257 C 513.101 152.053, 527.902 154.967, 532.007 163.013 C 534.440 167.783, 534.533 167.805, 536.474 164.050 C 542.885 151.653, 524.091 138.547, 506.803 143.357 M 497.736 168.250 C 494.577 170.649, 493.917 174.814, 494.611 187.962 L 495.280 200.640 499.890 199.880 C 502.426 199.461, 508.100 199.092, 512.500 199.059 L 520.500 198.998 520.500 184.585 C 520.500 169.972, 520.197 168.327, 517.681 169.292 C 516.648 169.689, 516.145 172.546, 515.782 180.073 C 515.242 191.298, 514.328 193, 508.844 193 C 504.863 193, 504 190.552, 504 179.266 C 504 167.595, 502.371 164.730, 497.736 168.250 M 484.693 206.972 C 478.767 209.287, 477 210.700, 477 213.122 C 477 216.930, 488.797 214.578, 490.379 210.455 C 491.236 208.222, 491.159 204.990, 490.250 205.047 C 489.837 205.073, 487.337 205.939, 484.693 206.972 M 532 220.824 C 532 222.604, 538.797 224.210, 543.189 223.468 C 548.482 222.574, 546.626 221.463, 538.250 220.513 C 534.202 220.054, 532 220.163, 532 220.824 M 464.971 225.442 C 438.652 235.142, 414.445 260.317, 403.520 289.349 C 399.881 299.019, 393.597 336, 395.593 336 C 395.919 336, 399.406 334.864, 403.343 333.475 C 407.279 332.086, 415.564 329.884, 421.754 328.581 C 434.204 325.960, 434.977 325.428, 439.299 316.500 C 442.474 309.943, 443.567 305.159, 445.470 289.500 C 447.360 273.957, 449.939 263.945, 454.489 254.500 C 457.982 247.248, 459.885 244.523, 468.750 234.080 C 476.556 224.886, 475.157 221.687, 464.971 225.442 M 495 324.070 C 479.102 324.723, 461.931 326.166, 440.158 328.680 C 435.715 329.193, 433.946 330.051, 429.658 333.769 C 418.381 343.546, 401.059 348.223, 395.492 342.993 C 393.126 340.770, 393.084 340.767, 389.909 342.626 C 385.348 345.297, 382.846 349.105, 382.347 354.136 C 381.599 361.663, 381.846 361.683, 400.155 355.571 C 435.031 343.927, 460.975 340.529, 515 340.529 C 560.751 340.529, 592.915 343.488, 613.221 349.566 C 622.958 352.481, 622.305 352.439, 621.035 350.066 C 620.466 349.002, 620 346.603, 620 344.735 L 620 341.339 607.750 337.240 C 593.796 332.571, 576.926 328.643, 561.577 326.488 C 552.607 325.229, 517.539 322.761, 514.500 323.175 C 513.950 323.249, 505.175 323.653, 495 324.070 M 413.500 333.964 C 398.077 338.005, 396.488 338.678, 398.014 340.517 C 401.276 344.448, 415.706 340.449, 425.885 332.794 C 429.302 330.224, 426.912 330.450, 413.500 333.964 M 486.500 343.624 C 441.089 346.518, 395.804 356.962, 374.473 369.463 C 364.121 375.529, 363.007 384.850, 372.073 389.538 C 374.934 391.017, 375.055 390.984, 376.013 388.467 C 376.556 387.039, 377 385.545, 377 385.147 C 377 383.672, 382.574 378.130, 384.652 377.539 C 386.102 377.127, 387.666 377.673, 389.444 379.214 C 394.778 383.832, 395.460 417.679, 390.405 426.876 C 389.082 429.283, 388 431.354, 388 431.479 C 388 431.604, 391.488 431.130, 395.750 430.427 C 488.503 415.130, 560.123 415.035, 621.394 430.129 C 630.136 432.283, 637.423 433.910, 637.588 433.745 C 637.753 433.581, 637.464 431.562, 636.947 429.259 C 635.826 424.269, 637.406 389.692, 638.940 385.658 C 641.123 379.917, 649.382 380.033, 652.428 385.847 L 653.775 388.418 655.884 384.959 C 662.491 374.121, 654.869 367.018, 626.500 357.574 C 605.502 350.584, 597.409 349.013, 563.959 345.434 C 550.195 343.961, 499.722 342.782, 486.500 343.624 M 623 345.484 C 623 349.514, 627.799 353.832, 635.283 356.538 C 640.920 358.576, 642.159 358.748, 642.617 357.556 C 643.880 354.265, 640.543 350.522, 633 346.766 C 624.123 342.347, 623 342.203, 623 345.484 M 483.838 355.526 C 478.683 358.326, 477.500 364.075, 477.500 386.337 C 477.500 411.541, 478.201 412.387, 496 408.654 L 501.500 407.500 502.430 401.627 C 503.461 395.120, 501.832 374.357, 499.506 364.348 C 497.354 355.091, 491.111 351.576, 483.838 355.526 M 520.573 356.336 C 517.601 359.308, 516.483 370.111, 517.472 386.284 C 518.687 406.157, 519.707 407.654, 532.718 408.658 C 543.704 409.505, 544.541 408.639, 545.534 395.393 C 547.151 373.817, 544.273 358.744, 537.905 355.451 C 533.228 353.032, 523.374 353.535, 520.573 356.336 M 486.315 358.007 C 483.251 359.242, 482.325 361.426, 481.084 370.349 C 479.903 378.839, 479.783 398.993, 480.890 403 C 481.670 405.828, 486.669 406.717, 494.891 405.490 L 499.282 404.835 498.671 389.668 C 497.571 362.366, 494.572 354.680, 486.315 358.007 M 523.441 358.417 C 519.387 361.378, 520.472 400.621, 524.695 403.750 C 525.680 404.480, 529.397 405, 533.624 405 C 542.514 405, 542.064 406.007, 542.194 385.812 C 542.341 362.798, 539.797 357.052, 529.441 357.015 C 527.209 357.007, 524.509 357.638, 523.441 358.417 M 569.251 360.537 C 566.351 362.568, 565.313 366.893, 563.977 382.500 C 562.790 396.362, 563.362 407.416, 565.410 410.211 C 568.103 413.887, 579.644 415.443, 583.469 412.646 C 585.925 410.851, 586.837 403.938, 586.921 386.500 C 586.998 370.673, 586.039 365.885, 581.983 361.829 C 578.716 358.563, 572.911 357.973, 569.251 360.537 M 445.001 362.726 C 439.270 365.632, 438.657 368.151, 438.574 389.135 C 438.483 411.960, 438.502 412, 449.200 412 C 460.205 412, 461.002 410.736, 460.992 393.295 C 460.977 364.607, 456.851 356.720, 445.001 362.726 M 571.819 363.042 C 569.096 364.630, 567.668 374.320, 567.581 391.781 C 567.488 410.463, 567.249 409.961, 576.231 409.985 C 583.019 410.003, 582.638 410.856, 583.377 394 C 584.134 376.758, 582.901 367.172, 579.557 364.295 C 576.694 361.833, 574.500 361.478, 571.819 363.042 M 444.861 366.910 C 441.228 369.849, 440.530 406.143, 444.070 408.037 C 446.627 409.406, 454.609 408.791, 456.305 407.095 C 458.541 404.859, 457.874 373.016, 455.460 366.750 C 454.520 364.310, 447.952 364.409, 444.861 366.910 M 410.888 368.500 C 406.229 371.032, 405.500 374.706, 405.500 395.644 C 405.500 417.161, 406.069 419.080, 412.405 418.924 C 423.455 418.652, 426.385 414.097, 425.542 398.500 C 423.993 369.826, 420.731 363.150, 410.888 368.500 M 605.594 369.897 C 603.165 372.580, 602.043 382.057, 602.020 400.095 C 601.996 419.098, 602.092 419.264, 613.497 419.840 C 620.297 420.183, 620.922 420.042, 622.296 417.855 C 625.357 412.981, 625.134 390.889, 621.909 379.523 C 619.448 370.849, 609.854 365.189, 605.594 369.897 M 413.235 371.037 C 409.613 372.492, 409 376.024, 409 395.443 C 409 415.550, 409.316 416.666, 414.654 415.424 C 421.473 413.838, 422 412.891, 421.997 402.227 C 421.992 384.672, 419.323 369.793, 416.227 370.063 C 415.827 370.098, 414.481 370.536, 413.235 371.037 M 607.114 374.250 C 605.981 377.299, 605.007 413.394, 606.014 415.023 C 607.409 417.280, 618.080 417.611, 619.663 415.446 C 622.670 411.334, 620.809 384.467, 617.001 377.003 C 614.222 371.556, 608.688 370.015, 607.114 374.250 M 382.681 382.800 C 379.914 385.857, 378.203 392.141, 379.222 395.500 C 379.723 397.150, 380.391 405.813, 380.707 414.750 C 381.022 423.688, 381.620 431, 382.036 431 C 384.142 431, 388.918 423.732, 389.540 419.581 C 390.719 411.719, 389.679 384.522, 388.128 382.654 C 386.354 380.516, 384.708 380.560, 382.681 382.800 M 643.531 385.353 C 639.909 388.002, 638.632 427.244, 641.989 432.750 C 644.161 436.313, 646.976 436.941, 649.128 434.342 C 650.692 432.453, 651.274 390.895, 649.781 387.773 C 648.457 385.006, 645.547 383.879, 643.531 385.353 M 491.500 422.596 C 466.247 423.884, 450.693 425.642, 404.500 432.430 C 378.791 436.208, 381.524 435.220, 380.132 441.247 C 379.430 444.291, 377.797 447.668, 376.214 449.352 C 373.886 451.827, 373.784 452.159, 375.500 451.685 C 382.471 449.758, 419.107 443.835, 444 440.610 C 466.286 437.724, 489.661 436.731, 522 437.298 C 575.571 438.238, 609.097 442.484, 653.441 453.947 C 662.208 456.213, 669.970 457.842, 670.691 457.565 C 674.968 455.924, 669.215 447.788, 661.497 444.563 C 656.691 442.555, 618.543 432.516, 606.500 430.090 C 578.259 424.400, 524.641 420.907, 491.500 422.596 M 370.500 439.087 C 362.140 442.395, 357.684 448.690, 362.049 451.026 C 366.917 453.631, 377 446.172, 377 439.965 C 377 436.506, 377.017 436.509, 370.500 439.087 M 480.500 440.613 C 447.643 442.716, 384.675 451.960, 365.716 457.462 C 338.974 465.223, 330.571 475.770, 344.772 483.751 L 348.739 485.981 349.307 481.751 C 350.560 472.407, 362.113 470.767, 366.723 479.280 C 368.239 482.078, 368.514 486.236, 368.825 511 C 369.194 540.438, 369.426 542, 373.422 542 C 377.866 542, 377.998 541.120, 378.044 511.050 C 378.091 480.006, 378.582 475.139, 382.035 471.462 C 386.572 466.634, 394.915 467.001, 397.576 472.147 C 399.346 475.570, 400.890 500.444, 400.961 526.691 C 400.983 534.496, 401.400 541.129, 401.889 541.432 C 402.378 541.734, 404.966 541.073, 407.639 539.962 L 412.500 537.943 412.200 504.558 C 411.867 467.386, 412.099 465.739, 418.190 462.026 C 420.585 460.565, 423.246 460.006, 427.816 460.004 C 440.493 459.996, 441 461.275, 441 493.245 C 441 520.164, 441.380 522, 446.946 522 C 454.171 522, 455.320 517.513, 456.554 484.500 C 457.567 457.371, 457.811 457.088, 480.967 456.112 C 508.432 454.955, 548.235 455.386, 551.140 456.871 C 555.301 458.998, 556 461.933, 556.004 477.297 C 556.008 491.200, 557.522 504.009, 560.225 513 C 561.517 517.299, 561.761 517.514, 565.695 517.803 C 572.753 518.322, 573.181 516.871, 572.411 495 C 571.335 464.415, 573.073 460, 586.190 460 C 604.496 460, 606.847 463.728, 607 493 C 607.195 530.297, 609.051 541.067, 615.409 541.822 C 621.088 542.497, 621.079 542.556, 620.780 508.605 C 620.434 469.127, 620.739 468, 631.799 468 C 637.630 468, 641.393 470.468, 643.871 475.918 C 645.258 478.967, 645.530 484.466, 645.703 512.870 C 645.927 549.547, 646.004 550, 652.033 550 C 657.242 550, 657.322 549.482, 657.530 514.137 C 657.736 479.332, 657.972 477.547, 662.535 476.402 C 669.843 474.568, 676.419 478.940, 677.533 486.374 C 678.320 491.617, 678.441 491.685, 682.359 489.102 C 686.728 486.222, 688.986 482.093, 688.993 476.973 C 689.007 467.675, 684.907 465.489, 651.621 457.048 C 617.888 448.493, 596.855 445.034, 560 441.980 C 547.015 440.904, 490.994 439.941, 480.500 440.613 M 471.069 460.001 C 463.560 460.851, 461.013 463.087, 460.977 468.861 C 460.925 477.335, 458.114 517.007, 457.495 518.009 C 456.565 519.513, 460.347 517.821, 482.376 506.877 C 500.479 497.885, 501.524 497.500, 507.876 497.500 C 512.655 497.500, 515.614 498.083, 518.500 499.592 C 533.016 507.182, 539.672 510.337, 547.758 513.460 C 552.800 515.407, 557.087 517, 557.285 517 C 557.483 517, 556.833 513.801, 555.840 509.891 C 553.197 499.484, 552 488.215, 552 473.751 L 552 460.950 549.435 459.975 C 546.486 458.854, 481.016 458.876, 471.069 460.001 M 421.329 464.458 C 415.576 466.960, 415.500 467.456, 415.500 502.666 C 415.500 520.358, 415.832 535.165, 416.239 535.572 C 416.645 535.978, 421.914 534.216, 427.948 531.655 C 433.982 529.095, 439.275 526.993, 439.710 526.985 C 442.635 526.928, 443.058 525.149, 440.707 522.798 C 437.388 519.479, 436.798 513.596, 437.187 487.666 L 437.500 466.833 435.139 464.916 C 432.336 462.641, 425.990 462.430, 421.329 464.458 M 579.286 464.629 C 575.719 467.642, 574.431 480.900, 576.039 498.038 C 577.654 515.258, 576.610 518.469, 568.520 521.151 L 563.540 522.803 568.020 524.864 C 575.253 528.191, 606.203 540.130, 606.591 539.743 C 606.786 539.547, 606.523 537.838, 606.005 535.944 C 604.908 531.924, 603.015 499.217, 603 484 C 602.981 466.125, 601.687 464.276, 588.500 463.285 C 582.622 462.843, 581.145 463.059, 579.286 464.629 M 386.828 472.136 C 382.433 473.745, 382 476.965, 382 508 C 382 542.575, 381.443 545, 373.500 545 C 365.691 545, 365.021 542.320, 364.900 510.601 C 364.845 496.245, 364.489 483.382, 364.109 482.015 C 363.079 478.317, 358.896 476.271, 355.515 477.811 C 352.906 479, 352.854 479.199, 353.313 486.264 C 354.640 506.704, 356.100 545.165, 355.729 549.919 C 355.007 559.191, 354.018 559.599, 330.756 560.230 C 308.543 560.833, 305.690 561.554, 305.191 566.698 C 304.791 570.826, 307.533 573.602, 313.495 575.103 C 321.256 577.057, 325.334 584.770, 321.950 591.094 C 321.132 592.622, 321.327 593.600, 322.833 595.514 C 326.913 600.702, 326.281 616.624, 321.835 620.651 C 319.917 622.388, 316.480 622.532, 265.147 623.035 C 235.091 623.329, 209.739 623.929, 208.810 624.369 C 207.254 625.105, 207.290 625.494, 209.260 629.274 C 212.559 635.603, 212.516 642.530, 209.067 660.338 C 203.407 689.564, 202.794 697.682, 203.164 738.500 C 203.548 780.798, 203.738 779.743, 194.727 785.500 C 192.145 787.150, 187.887 789.850, 185.266 791.500 C 179.102 795.380, 178.265 798.042, 177.880 814.998 L 177.576 828.402 181.566 830.142 C 188.126 833.003, 200.876 834, 230.974 834.006 C 246.663 834.009, 261.075 834.437, 263 834.958 C 265.634 835.671, 268.108 835.459, 273 834.104 L 279.500 832.302 280.083 826.308 C 280.970 817.202, 286.384 811.688, 297.658 808.411 C 303.563 806.694, 304.888 803.957, 303.628 796.078 C 302.234 787.355, 305.740 784.172, 317.750 783.261 L 325 782.711 325.006 777.606 C 325.013 770.846, 326.645 765.260, 328.978 764.012 C 330.018 763.455, 336.346 763, 343.041 763 C 354.266 763, 355.153 762.864, 354.430 761.250 C 352.518 756.984, 352.764 750.236, 354.910 748.090 C 357.246 745.754, 367.429 745.089, 371.066 747.035 C 373.497 748.336, 373.469 752.460, 371.483 686 C 369.249 611.201, 369.399 613.300, 366.154 611.747 C 359.752 608.684, 358.486 600.234, 363.705 595.397 C 365.699 593.550, 366.350 591.949, 366.415 588.740 C 366.498 584.599, 366.420 584.498, 362.500 583.661 C 355.595 582.186, 352.387 580.347, 351.038 577.092 C 347.773 569.208, 353.931 564.333, 385.292 549.974 C 396.349 544.911, 398.941 543.346, 398.368 542.080 C 397.975 541.211, 397.332 526.775, 396.940 510 C 396.005 470.031, 395.700 468.888, 386.828 472.136 M 626.669 472.474 C 624.272 474.871, 623.788 482.463, 624.154 511.923 C 624.495 539.401, 624.467 539.859, 622.288 542.815 C 620.269 545.555, 620.225 545.874, 621.788 546.484 C 622.730 546.852, 631.369 550.092, 640.986 553.683 C 668.059 563.792, 677 568.959, 677 574.491 C 677 578.089, 673.937 580, 668.171 580 C 662.243 580, 662.363 579.819, 665 584.739 C 666.100 586.791, 667 589.928, 667 591.710 C 667 594.290, 667.604 595.261, 669.970 596.485 C 677.522 600.390, 676.401 610.520, 668.034 613.986 L 665 615.243 665.018 626.371 C 665.095 675.071, 667.099 746.988, 668.533 752.500 C 670.254 759.120, 673 763.216, 673 759.165 C 673 756.149, 675.529 751.395, 677.545 750.621 C 686.908 747.028, 693.340 757.814, 686.133 765.021 C 682.476 768.678, 683.268 769, 695.925 769 L 705.686 769 706.343 752.340 C 707.333 727.247, 707.133 682.829, 705.928 659.897 C 704.651 635.602, 705.199 628.037, 708.510 624.208 L 710.852 621.500 708.801 619.303 C 704.566 614.765, 703.694 601.215, 707.400 597.509 C 709.039 595.870, 709.800 593.975, 709.800 591.532 C 709.800 585.797, 712.048 583.571, 722.011 579.441 C 732.339 575.160, 735 572.579, 735 566.840 C 735 560.829, 733.480 560.560, 707.310 561.940 C 683.461 563.197, 678.895 562.760, 675.409 558.889 C 673.603 556.884, 673.500 554.776, 673.500 519.928 C 673.500 479.560, 673.690 480.837, 667.500 479.602 C 661.413 478.388, 661.548 477.654, 661 515.052 L 660.500 549.179 658.139 551.090 C 654.764 553.821, 648.811 553.601, 645.342 550.618 L 642.573 548.236 642.493 514.868 C 642.405 478.288, 641.884 474.635, 636.399 472.136 C 632.940 470.560, 628.426 470.717, 626.669 472.474 M 503 500.916 C 501.625 501.382, 490.825 506.475, 479 512.233 C 467.175 517.992, 448.111 526.703, 436.635 531.590 C 420.620 538.410, 415.575 540.989, 414.930 542.685 C 413.610 546.156, 409.533 548.332, 405.752 547.584 C 400.058 546.456, 399.302 546.709, 379.726 556.269 C 358.226 566.769, 354 569.693, 354 574.066 C 354 577.578, 356.700 579.496, 362.950 580.426 C 368.838 581.301, 370 582.447, 370 587.372 L 370 591.500 378.557 591.145 C 389.987 590.671, 395.362 591.593, 398.995 594.649 C 402.752 597.810, 402.752 599.567, 399 607 C 396.983 610.995, 396 614.427, 396 617.471 L 396 622 406.435 622 C 420.711 622, 424.146 623.540, 425.398 630.500 C 425.694 632.150, 426.017 659.150, 426.115 690.500 C 426.289 745.918, 426.236 747.667, 424.210 753.500 C 423.064 756.800, 422.500 759.880, 422.957 760.344 C 424.588 762.001, 427.529 760.437, 429.248 756.997 C 431.339 752.816, 431.697 721.262, 429.896 700 C 429.313 693.125, 428.712 671.525, 428.560 652 C 428.408 632.475, 427.967 615.765, 427.580 614.868 C 427.193 613.970, 425.056 611.773, 422.832 609.985 C 415.117 603.786, 414.606 596.268, 421.763 594.266 C 426.973 592.808, 452.222 593.360, 455.477 595.002 C 459.657 597.112, 460.763 600.817, 458.495 605.109 C 452.949 615.601, 452.924 615.675, 453.585 619.806 L 454.239 623.895 467.369 624.211 C 474.591 624.385, 481.288 624.907, 482.250 625.371 C 483.751 626.094, 484 625.695, 484 622.575 C 484 617.305, 481.811 612.856, 477.661 609.691 C 471.122 604.703, 470.378 599.407, 475.822 596.592 C 479.979 594.442, 494.314 592.771, 501.881 593.554 C 517.199 595.138, 519.691 600.014, 510.333 610.094 C 507.707 612.922, 506.390 618.435, 507.390 622.417 C 507.951 624.653, 508.315 624.831, 510.577 623.971 C 511.981 623.437, 519.009 623, 526.195 623 L 539.260 623 538.749 618.464 C 538.315 614.618, 537.460 613.183, 533.119 609.021 C 527.449 603.585, 526.656 600.525, 530.107 597.405 C 533.147 594.657, 555.193 594.610, 562.261 597.337 C 569.994 600.321, 570.973 604.449, 565.500 611 C 563.005 613.986, 562 616.167, 562 618.595 L 562 622 568.557 622 C 572.164 622, 578.239 621.484, 582.057 620.853 L 589 619.707 589 616.001 C 589 613.647, 588.100 611.057, 586.533 608.898 C 585.176 607.029, 583.308 604.462, 582.381 603.193 C 576.829 595.594, 597.903 589.583, 613.345 594.362 C 623.393 597.472, 624.598 602.008, 617.500 610 C 613.586 614.407, 613 615.652, 613 619.562 L 613 624.056 626.750 623.778 L 640.500 623.500 640.353 618.127 C 640.250 614.335, 639.589 611.980, 638.110 610.127 C 629.119 598.863, 634.451 593.424, 654.340 593.574 L 664.180 593.648 663.588 590.689 C 662.715 586.324, 659.096 580.987, 656.284 579.918 C 649.412 577.305, 451.696 575.797, 407.355 578.020 C 378.870 579.447, 375.563 579.090, 374.402 574.467 C 372.929 568.598, 377.473 565.890, 399.696 559.396 C 421.335 553.072, 471.477 531.520, 494.371 518.702 C 503.384 513.655, 506.033 512.621, 509.871 512.645 C 515.456 512.682, 529.992 518.481, 551.606 529.295 C 570.737 538.867, 584.818 544.993, 614.500 556.658 C 646.859 569.375, 647.685 569.728, 654.131 573.609 C 663.889 579.485, 677.984 577.893, 671.714 571.623 C 668.234 568.143, 661.891 565.145, 643 558.052 C 592.558 539.112, 565.553 527.774, 561.751 523.940 C 559.688 521.860, 556.580 519.847, 554.842 519.465 C 549.788 518.355, 533.279 511.245, 523.372 505.910 C 514.012 500.870, 507.702 499.324, 503 500.916 M 499.895 519.550 C 474.975 533.386, 420.236 557.236, 402.427 562.018 C 395.867 563.779, 388.199 566.080, 385.386 567.131 C 373.088 571.727, 374.860 576.571, 388.500 575.640 C 426.710 573.034, 458.390 572.667, 543.459 573.847 C 591.882 574.519, 636 575.299, 641.500 575.581 L 651.500 576.092 646.500 573.392 C 643.750 571.907, 638.125 569.456, 634 567.945 C 605.435 557.482, 568.505 541.749, 545.528 530.255 C 527.999 521.486, 514.156 516, 509.559 516 C 507.681 516, 503.568 517.511, 499.895 519.550 M 408 543.500 C 406.280 544.483, 406.008 544.940, 407.128 544.965 C 408.023 544.984, 409.315 544.325, 410 543.500 C 411.523 541.665, 411.209 541.665, 408 543.500 M 194.227 595.112 C 187.602 597.562, 189.233 609.435, 197.269 617.262 C 201.707 621.585, 202.693 622.107, 205.409 621.573 C 212.709 620.140, 248.147 619.018, 281.814 619.154 C 324.077 619.325, 321.205 620.056, 321.831 608.979 C 322.256 601.466, 320.931 596.595, 318.158 595.473 C 315.716 594.484, 196.859 594.138, 194.227 595.112 M 372 594.857 C 369.679 595.571, 369.524 596.009, 369.837 600.978 C 370.348 609.070, 371.135 610.354, 376.457 611.777 C 379.035 612.467, 383.531 614.558, 386.449 616.424 L 391.753 619.817 392.381 615.240 C 392.726 612.722, 394.131 608.745, 395.504 606.403 C 398.828 600.730, 398.754 597.683, 395.250 596.001 C 392.122 594.500, 375.776 593.696, 372 594.857 M 427 596.843 C 418.186 598.232, 417.832 600.517, 425.337 607.582 C 432.088 613.937, 431.975 613.226, 431.989 649.489 C 431.995 665.678, 432.713 688.859, 433.615 701.989 C 435.618 731.134, 435.060 754.495, 432.246 759.328 C 429.638 763.808, 425.823 765.507, 422.250 763.780 C 418.998 762.208, 418.798 758.872, 421.421 750 C 423.522 742.896, 423.396 632.062, 421.283 628.377 C 420.178 626.451, 418.975 626.210, 408.283 625.772 C 401.802 625.507, 396.362 625.400, 396.194 625.535 C 395.899 625.770, 396.195 632.089, 399.514 696.500 C 401.253 730.241, 401.409 750.986, 399.965 756.186 C 398.348 762.007, 394.002 765.001, 387.173 764.996 C 381.468 764.993, 375 762.318, 375 759.964 C 375 759.378, 373.524 760.024, 371.720 761.400 C 369.916 762.776, 367.329 764.327, 365.970 764.848 L 363.500 765.794 366.315 766.897 C 369.319 768.074, 458.433 768.539, 461.418 767.393 C 463.606 766.553, 463.395 764.662, 460.862 762.405 C 455.892 757.977, 455.595 755.291, 453.960 700 C 453.415 681.575, 452.545 659.750, 452.027 651.500 C 451.509 643.250, 450.804 631.100, 450.459 624.500 L 449.832 612.500 452.898 608 C 456.730 602.375, 456.896 599.291, 453.437 597.976 C 450.052 596.689, 432.696 595.945, 427 596.843 M 592.500 596.615 C 584.013 598.724, 583.338 600.418, 588.645 606.292 L 592.289 610.326 591.452 625.913 C 590.536 642.974, 590.382 671.501, 590.960 717 C 591.246 739.490, 591.015 747.738, 589.989 751.710 C 587.458 761.503, 591.708 765.107, 606.605 765.801 C 619.382 766.397, 622.175 764.759, 617.640 759.327 C 614.361 755.399, 614.140 752.850, 613.013 706 C 612.464 683.175, 611.287 654.600, 610.397 642.500 C 608.520 616.975, 608.884 614.251, 615.063 607.548 C 620.070 602.116, 620.019 600.638, 614.750 598.463 C 610.584 596.743, 596.643 595.585, 592.500 596.615 M 744.747 596.967 C 706.996 597.671, 708.406 597.307, 708.791 606.253 C 709.082 613.033, 710.667 617.752, 713.089 619.048 C 717.160 621.226, 738.843 622.150, 780 621.897 C 803.375 621.753, 823.606 621.830, 824.959 622.068 C 830.857 623.105, 835.470 603.496, 830.595 598.106 C 828.460 595.745, 817.851 595.605, 744.747 596.967 M 481.513 598.350 C 474.584 599.960, 474.497 601.916, 481.061 608.562 L 486.316 613.882 487.087 622.691 C 487.511 627.536, 487.886 647.700, 487.920 667.500 C 487.954 687.300, 488.496 713.452, 489.125 725.616 C 490.483 751.902, 490.147 755.100, 485.466 760.489 C 481.286 765.300, 481.237 765.750, 484.750 767.128 C 487.985 768.397, 511.333 767.428, 514.174 765.907 C 516.928 764.433, 516.375 760.982, 512.791 757.285 L 509.582 753.974 508.345 731.237 C 507.158 709.415, 504.734 637.812, 504.576 619.881 L 504.500 611.262 508.817 606.581 C 511.191 604.007, 512.957 601.360, 512.742 600.700 C 511.628 597.290, 492.329 595.838, 481.513 598.350 M 640.750 598.658 C 636.159 600.563, 636.076 601.967, 640.250 607.165 L 643.500 611.212 643.119 683.356 C 642.744 754.227, 642.700 755.564, 640.658 759.143 C 637.107 765.364, 638.542 766, 656.122 766 C 664.305 766, 671 765.733, 671 765.408 C 671 765.082, 670.099 763.670, 668.998 762.270 C 664.242 756.223, 663.833 752.295, 662.833 703 C 662.314 677.425, 662.027 643.112, 662.195 626.750 L 662.500 596.999 653.500 597.051 C 647.740 597.084, 643.150 597.663, 640.750 598.658 M 364.667 598.667 C 363.415 599.918, 363.997 605.752, 365.497 606.998 C 366.805 608.083, 366.914 607.623, 366.356 603.370 C 365.637 597.879, 365.589 597.745, 364.667 598.667 M 535.323 598.634 C 530.441 599.724, 530.417 601.778, 535.233 606.276 C 542.350 612.925, 542.350 612.923, 541.907 635.465 C 541.691 646.484, 541.736 668.550, 542.007 684.500 C 542.278 700.450, 542.500 722.527, 542.500 733.560 L 542.500 753.619 539.750 756.886 C 535.968 761.379, 536.085 764.640, 540.059 765.513 C 545.103 766.621, 569.055 766.345, 570.234 765.166 C 571.293 764.107, 571.169 763.853, 566.407 757.284 C 564.042 754.021, 563.116 739.638, 562.041 689.500 C 561.474 663.048, 560.476 639.854, 559.538 631.342 C 557.813 615.671, 558.073 613.958, 563.046 608.295 C 566.865 603.945, 565.852 601.716, 559.283 600.017 C 554.194 598.702, 538.957 597.822, 535.323 598.634 M 666.640 600.750 C 663.994 610.119, 665.337 613.464, 669.826 608.686 C 672.480 605.860, 672.609 602.861, 670.171 600.655 C 667.856 598.560, 667.255 598.576, 666.640 600.750 M 372.452 617.124 C 373.166 621.213, 374.875 676.438, 375.666 721 C 376.289 756.119, 376.738 759.190, 381.517 761.006 C 385.692 762.594, 390.522 762.164, 393.331 759.955 C 398.537 755.859, 398.899 749.606, 396.454 706.040 C 395.604 690.893, 394.367 666.178, 393.704 651.118 L 392.500 623.737 385 619.418 C 380.875 617.043, 376.231 614.795, 374.681 614.424 C 371.939 613.767, 371.878 613.840, 372.452 617.124 M 583.500 624.057 C 581.300 624.512, 575.723 624.911, 571.107 624.942 L 562.713 625 563.417 634.250 C 565.513 661.766, 565.933 671.763, 565.969 695 C 566.039 739.398, 567.692 756.010, 572.434 759.945 C 575.518 762.505, 574.411 766.930, 570.250 768.670 C 564.406 771.114, 540.026 770.154, 536.231 767.330 C 532.299 764.406, 532.282 761.525, 536.165 756.132 L 539.500 751.500 539.376 739.500 C 539.309 732.900, 539.026 704.775, 538.748 677 L 538.243 626.500 524.371 626.870 C 516.742 627.074, 510.116 627.467, 509.647 627.743 C 508.334 628.516, 510.551 716.889, 512.585 744.813 C 513.124 752.217, 513.506 753.449, 516.081 756.083 C 521.102 761.219, 521.193 765.516, 516.349 768.692 C 512.048 771.511, 482.507 771.402, 480.423 768.559 C 478.230 765.568, 478.688 763.561, 482.640 758.845 L 486.281 754.500 485.641 733.500 C 485.289 721.950, 484.704 694.295, 484.340 672.044 C 483.531 622.584, 485.277 627, 466.538 627 L 453.986 627 454.486 633.750 C 455.543 648.006, 457.021 681.860, 458.011 714.500 C 459.269 755.981, 459.187 755.301, 463.616 760.707 C 465.557 763.075, 466.995 765.786, 466.813 766.731 C 466.019 770.854, 463.764 771.022, 412.833 770.755 L 364.165 770.500 361.123 768.250 C 358.324 766.180, 357.010 766, 344.663 766 C 328.946 766, 329.500 765.648, 328.535 776.250 L 327.829 784 341.665 784.145 C 349.274 784.224, 434.789 784.562, 531.697 784.895 L 707.894 785.500 707.382 781 C 706.273 771.238, 707.302 772, 695.224 772 C 689.319 772, 682.915 771.469, 680.993 770.821 C 678.859 770.100, 670.484 769.614, 659.465 769.571 C 643.965 769.510, 641.049 769.251, 638.715 767.727 C 635.576 765.677, 635.062 761.361, 637.512 757.622 C 638.780 755.687, 639.104 748.476, 639.519 712.907 C 639.792 689.583, 640.226 660.753, 640.485 648.841 L 640.955 627.181 626.978 627.258 L 613 627.334 613.007 629.917 C 613.010 631.338, 613.679 640.600, 614.493 650.500 C 615.307 660.400, 615.979 676.183, 615.987 685.573 C 615.994 694.963, 616.485 714.275, 617.077 728.490 C 618.118 753.486, 618.233 754.439, 620.577 757.512 C 627.160 766.142, 618.271 771.698, 602.057 769.087 C 588.281 766.868, 583.903 761.756, 586.466 750.882 C 588.337 742.944, 588.450 723.637, 586.851 685.178 C 585.722 658.040, 586.233 641.367, 588.643 626.750 C 588.983 624.688, 588.865 623.052, 588.381 623.115 C 587.896 623.178, 585.700 623.602, 583.500 624.057 M 712.627 624.834 C 711.670 625.018, 710.521 626.143, 710.075 627.334 C 709.629 628.525, 709.494 660.611, 709.774 698.636 L 710.284 767.772 714.853 768.287 C 721.537 769.040, 723 771.327, 723 781.023 L 723 788.824 727.102 789.517 C 734.097 790.699, 737.311 794.526, 737.804 802.258 L 738.219 808.779 742.214 809.418 C 751.184 810.853, 755 815.148, 755 823.811 L 755 828.721 760.236 829.342 C 766.046 830.030, 769.834 832.322, 771.806 836.343 C 772.972 838.721, 773.513 838.942, 776.872 838.405 C 778.940 838.074, 785.102 838.502, 790.566 839.356 C 818.134 843.664, 841.449 841.812, 852.039 834.473 C 855.785 831.877, 855.869 831.686, 855.315 827.016 C 855.003 824.379, 855.305 817.677, 855.985 812.122 C 857.810 797.226, 856.847 795.269, 845.046 789.885 C 828.876 782.508, 829.014 783.239, 828.010 699.500 C 827.224 634.019, 826.903 628.825, 823.468 625.973 C 822.093 624.832, 718.198 623.764, 712.627 624.834 M 201.955 628.555 C 200.461 630.354, 200.458 630.465, 200.882 659.500 C 201.233 683.504, 201.386 683.571, 205.450 661.500 C 208.623 644.268, 208.792 634.812, 206.011 630.250 C 203.728 626.506, 203.674 626.483, 201.955 628.555 M 265.217 646.561 C 259.178 650.790, 258.685 655.531, 259.566 700.834 C 260.439 745.712, 259.588 743, 272.800 743 C 284.780 743, 284.433 743.767, 284.802 716.529 C 285.197 687.452, 283.731 656.685, 281.721 651.876 C 279.019 645.408, 270.691 642.726, 265.217 646.561 M 301.014 646.752 C 299.097 647.713, 297.007 649.558, 296.371 650.851 C 294.728 654.192, 293.818 691.118, 294.736 717.214 C 295.664 743.586, 295.111 742.500, 307.616 742.500 C 317.459 742.500, 318.448 741.809, 319.622 734.115 C 320.608 727.647, 318.365 657.304, 317.029 652.795 C 314.912 645.652, 308.232 643.131, 301.014 646.752 M 724.500 646.891 C 718.382 649.561, 718.529 648.513, 718.190 691.854 C 717.775 744.939, 717.572 744, 729.435 744 C 738.426 744, 740.669 742.943, 741.976 738.089 C 743.410 732.763, 743.485 660.514, 742.062 655.229 C 740.133 648.067, 731.354 643.899, 724.500 646.891 M 759.831 647.530 C 754.855 650.232, 754.572 652.938, 754.534 698.211 C 754.494 747.470, 753.445 743.500, 766.500 743.500 C 778.368 743.500, 778.083 743.959, 778.704 723.865 C 779.296 704.717, 777.535 659.158, 775.995 653.795 C 774.004 646.861, 766.453 643.934, 759.831 647.530 M 795.206 646.994 C 793.944 647.530, 792.231 649.597, 791.399 651.587 C 789.306 656.598, 788.179 685.492, 788.913 715.340 C 789.618 743.965, 789.163 743, 801.956 743 C 812.557 743, 812.915 742.530, 814.260 726.807 C 815.363 713.913, 813.828 668.354, 811.909 657.013 C 810.418 648.202, 802.933 643.713, 795.206 646.994 M 226.063 649.783 C 222.105 653.741, 221.770 659.270, 222.990 700.500 C 224.096 737.879, 224.298 740.055, 226.887 742.397 C 230.103 745.308, 244.007 744.993, 247.060 741.940 C 249.083 739.917, 249.114 739.158, 248.810 698.190 C 248.530 660.581, 248.327 656.184, 246.733 653.267 C 243.036 646.502, 231.319 644.528, 226.063 649.783 M 266.306 650.413 L 263.500 652.825 263.208 693.900 C 263.022 719.973, 263.281 735.657, 263.917 736.844 C 264.670 738.252, 266.464 738.855, 271.167 739.281 C 282.126 740.275, 281.307 743.796, 280.730 698.153 C 280.404 672.431, 279.823 657.193, 279.075 654.779 C 276.990 648.050, 271.312 646.108, 266.306 650.413 M 300.405 651.104 C 298.596 653.103, 298.500 655.308, 298.500 695.054 C 298.500 728.054, 298.775 737.174, 299.800 738.199 C 301.709 740.110, 313.788 739.951, 315.021 738 C 317.596 733.927, 315.429 655.830, 312.623 651.547 C 310.397 648.150, 303.311 647.894, 300.405 651.104 M 725.796 650.136 C 724.308 650.686, 722.733 652.118, 722.296 653.318 C 721.460 655.609, 721.721 735.301, 722.574 738.142 C 723.574 741.477, 737.107 741.458, 738.620 738.119 C 739.619 735.917, 740.376 671.503, 739.512 662.285 C 738.518 651.683, 733.540 647.273, 725.796 650.136 M 229.313 650.786 C 225.833 652.998, 225.020 676.237, 226.918 719.244 C 227.908 741.680, 227.670 741.190, 237.382 740.791 L 244.451 740.500 245.271 736 C 246.883 727.163, 245.608 659.973, 243.748 655.744 C 241.584 650.820, 233.581 648.072, 229.313 650.786 M 759.877 652.230 C 756.988 657.628, 756.204 736.605, 759.012 739.411 C 760.173 740.573, 772.075 740.689, 773.907 739.557 C 775.262 738.720, 775.363 685.340, 774.044 667.188 C 772.943 652.043, 771.929 650, 765.512 650 C 761.941 650, 760.836 650.437, 759.877 652.230 M 795.022 651.959 C 792.873 655.973, 791.817 675.988, 792.155 706.283 C 792.552 741.807, 792.021 740, 802.069 740 C 810.323 740, 810.431 739.756, 810.874 720.097 C 811.223 704.631, 809.560 661.958, 808.366 655.740 C 807.568 651.581, 805.392 650, 800.464 650 C 797.124 650, 795.819 650.470, 795.022 651.959 M 357.469 750.674 C 355.628 752.515, 355.966 758.049, 358.074 760.589 C 361.283 764.456, 372 759.745, 372 754.468 C 372 749.587, 361.339 746.803, 357.469 750.674 M 678 755 C 675.115 757.885, 675.162 765, 678.066 765 C 682.647 765, 685.960 762.050, 685.985 757.950 C 686.014 753.020, 681.608 751.392, 678 755 M 710 775.475 C 710 781.033, 712.331 785.571, 715.810 786.784 L 718.835 787.838 719.438 783.169 C 720.454 775.315, 719.133 772.556, 714.183 772.193 L 710 771.885 710 775.475 M 309.250 788.031 C 307.163 788.870, 307 789.554, 307 797.468 C 307 802.160, 307.362 806, 307.804 806 C 312.173 806, 322.082 795.773, 323.548 789.750 L 324.217 787 317.858 787.063 C 314.361 787.098, 310.488 787.534, 309.250 788.031 M 327.436 788.613 C 325.488 794.680, 323.189 798.493, 319.338 802.042 C 316.952 804.242, 315 806.257, 315 806.521 C 315 806.784, 401.512 806.999, 507.250 806.997 C 642.852 806.995, 702.680 807.327, 710.292 808.122 C 722.492 809.396, 722.594 809.369, 720.524 805.399 C 719.693 803.804, 719.010 799.971, 719.006 796.880 L 719 791.260 714.750 790.176 C 711.831 789.432, 660.237 788.919, 550 788.540 C 461.725 788.235, 375.672 787.703, 358.771 787.357 C 329.241 786.752, 328.018 786.801, 327.436 788.613 M 722.056 795.750 C 722.185 804.276, 725.785 808.951, 732.250 808.985 C 734.840 808.999, 735 808.742, 735 804.547 C 735 798.279, 733.367 795.364, 728.844 793.554 C 722.874 791.165, 721.992 791.451, 722.056 795.750 M 306.743 809.590 C 306.334 809.999, 306 811.848, 306 813.699 C 306 818.317, 303.616 823.622, 300.040 826.963 L 297.048 829.758 379.774 830.520 C 425.273 830.940, 522.125 830.995, 595 830.642 C 667.875 830.289, 729.840 830.001, 732.699 830 L 737.898 830 736.449 826.532 C 735.652 824.625, 735 820.545, 735 817.467 L 735 811.870 728.750 812.108 C 725.313 812.239, 715.975 812.035, 708 811.653 C 700.025 811.272, 608 810.766, 503.500 810.529 C 399 810.292, 312.147 809.817, 310.493 809.473 C 308.839 809.129, 307.152 809.182, 306.743 809.590 M 293.324 813.923 C 286.246 817.272, 284.273 819.728, 283.370 826.315 C 282.602 831.919, 284.077 832.384, 291.517 828.887 C 296.901 826.356, 300.552 822.275, 301.956 817.219 C 304.006 809.839, 302.873 809.406, 293.324 813.923 M 738.294 813.676 C 737.436 815.911, 738.846 824.116, 740.529 826.685 C 741.787 828.604, 742.918 829, 747.147 829 L 752.248 829 751.787 823.441 C 751.231 816.742, 749.014 814.100, 743.030 813.006 C 739.796 812.414, 738.720 812.566, 738.294 813.676 M 291.500 833.767 C 283.471 834.302, 283.532 834.244, 282.047 842.605 C 281.105 847.908, 280.998 850.773, 281.701 851.888 C 282.968 853.897, 426.915 854.531, 633.919 853.440 L 764.338 852.753 766.669 850.422 C 769.937 847.154, 769.580 845.511, 766.153 848.045 C 759.636 852.863, 753.342 848.717, 752.333 838.941 L 751.771 833.500 523.636 833.500 C 398.161 833.500, 293.700 833.620, 291.500 833.767 M 755.464 837.750 C 756.799 846.919, 759.817 848.903, 765.656 844.449 C 772.163 839.486, 768.894 833, 759.886 833 L 754.773 833 755.464 837.750 M 261.817 841.718 C 256.253 845.169, 255.634 850.368, 260.638 851.624 C 264.732 852.651, 268.428 850.180, 268.818 846.153 C 269.368 840.481, 266.619 838.739, 261.817 841.718" stroke="none" fill="#2f6b4f" fill-rule="evenodd"/>
</svg>