<svg xmlns="http://www.w3.org/2000/svg" width="1024" height="1024" viewBox="0 0 1024 1024" version="1.1">
	<path d="M 352.327 141.520 C 338.574 149.764, 327.989 179.625, 328.006 210.128 C 328.022 238.722, 336.413 263.745, 352.403 282.884 C 357.645 289.158, 357.261 290.606, 348.068 299.254 C 337.433 309.259, 332.814 311.459, 322.500 311.434 C 312.646 311.410, 307.099 308.978, 288.824 296.666 C 274.180 286.799, 260.682 278.737, 253.043 275.292 C 210.707 256.204, 168.902 260.969, 113.143 291.237 C 90.188 303.697, 84.638 312.793, 91.219 327.166 C 93.783 332.767, 124.994 380.212, 132.814 390.396 C 154.268 418.335, 174.726 429.409, 205 429.471 C 227.379 429.516, 246.479 424.484, 270.252 412.278 C 290.619 401.822, 299.994 391.788, 300.005 380.434 L 300.010 375.500 302.460 378.500 C 307.386 384.532, 310.993 393.018, 319.038 417.500 C 329.855 450.418, 332.848 456, 339.685 456 C 347.840 456, 353.946 447.621, 357.530 431.512 C 360.610 417.667, 368.546 410.848, 381.672 410.768 C 399.228 410.661, 410.891 423.414, 420.543 453.271 C 433.093 492.091, 432.768 528.339, 419.770 539.465 C 413.839 544.541, 408.121 545.569, 394.519 544.002 C 371.451 541.345, 360.840 543.924, 351.131 554.548 C 335.556 571.589, 337.917 596.225, 360.059 647.699 C 372.152 675.811, 372.499 677.775, 368.410 695 C 365.935 705.426, 365.868 730.836, 368.291 740 C 374.005 761.608, 387.457 776.662, 408.574 785.079 C 423.132 790.882, 424.973 792.187, 434.194 803.247 C 453.369 826.246, 477.088 834.962, 517 833.674 C 551.891 832.548, 574.105 824.936, 597.988 805.922 C 610.476 795.980, 615.126 793.337, 631.092 787.106 C 649.446 779.942, 660.399 772.054, 669.006 759.798 C 680.011 744.127, 685.248 720.228, 682.001 700.500 C 680.644 692.260, 681.870 686.426, 689.067 666.863 C 710.962 607.344, 714.376 564.323, 698.466 548.413 C 692.236 542.183, 684.473 540, 668.554 540 C 654.303 540, 649.021 538.725, 641.326 533.425 C 627.013 523.567, 620.540 501.582, 623.957 474.435 C 628.302 439.912, 649.094 415.745, 667.746 423.538 C 674.866 426.513, 677.870 431.099, 680.585 443.136 C 686.203 468.046, 696.454 478.155, 705.961 468.161 C 711.596 462.238, 715.399 447.892, 719.044 418.818 C 721.516 399.096, 723.019 393.438, 727.259 387.895 C 731.676 382.120, 732.725 382.022, 734.045 387.262 C 738.237 403.913, 769.378 423.428, 799.900 428.532 C 814.164 430.917, 840.932 430.136, 852.500 426.998 C 885.277 418.105, 908.060 394.885, 930.693 347.308 C 937.392 333.225, 943.007 316.573, 942.978 310.873 C 942.914 298.192, 933.919 290.462, 909.377 281.999 C 861.057 265.337, 814.516 261.779, 783.390 272.368 C 765.881 278.324, 757.391 284.408, 735.498 306.683 C 712.960 329.616, 711.985 329.841, 708.110 313.013 C 703.836 294.448, 696.025 287.113, 686.681 292.888 C 675.963 299.512, 679.214 317.127, 694.546 335.500 C 708.317 352.003, 713.221 360.345, 716.428 372.721 C 719.283 383.741, 719.913 391.208, 718.458 396.814 C 717.721 399.656, 716.372 408.146, 715.460 415.680 C 713.209 434.280, 708.650 455.884, 705.747 461.706 C 699.565 474.105, 690.302 466.564, 685.158 444.944 C 681.486 429.513, 678.459 424.404, 670.691 420.533 C 649.958 410.201, 625.965 433.828, 620.458 470 C 616.268 497.522, 620.944 519.104, 633.907 532.067 C 643.444 541.604, 647.980 543.193, 668 544.006 C 685.842 544.732, 690.049 545.778, 695.339 550.803 C 710.040 564.767, 706.481 606.299, 685.595 664.500 C 679.724 680.862, 677.909 684.973, 677.378 683.116 C 677.003 681.804, 674.750 676.732, 672.371 671.845 C 653.848 633.787, 627.731 621.450, 569.500 623.251 C 554.417 623.718, 547.385 623.480, 505.407 621.081 C 474.271 619.302, 439.104 622.448, 421.953 628.547 C 401.737 635.735, 387.637 648.399, 377.693 668.299 L 374.706 674.277 373.019 668.888 C 372.092 665.925, 367.893 655.588, 363.688 645.918 C 342.410 596.980, 339.889 571.016, 354.952 555.952 C 363.954 546.950, 370.596 545.896, 401.122 548.625 C 419.448 550.263, 430.202 540.122, 433.063 518.503 C 437.570 484.444, 421.079 427.739, 402.558 413.612 C 384.720 400.007, 360.612 406.447, 354.980 426.322 C 350.602 441.770, 349.494 444.448, 345.924 448.200 C 337.651 456.897, 335.266 453.681, 323.451 417.892 L 317.637 400.285 322.407 369.962 C 329.742 323.327, 328.973 324.854, 361.869 291.674 C 387.337 265.986, 416.954 240.467, 414.808 246.059 C 414.494 246.875, 413.458 251.048, 412.505 255.332 C 407.479 277.922, 414.212 297.151, 430.596 307 C 439.002 312.053, 451.157 312.159, 461.104 307.266 C 471.912 301.951, 481.097 290.440, 485.037 277.278 C 488.824 264.622, 496.382 266.308, 508.456 282.500 C 526.233 306.338, 549.498 319.358, 574.500 319.459 C 595.071 319.543, 599.219 310.902, 586 295.500 C 573.362 280.773, 573.170 277.736, 584.061 264.765 C 603.379 241.757, 592.254 217.037, 558.758 208.540 C 533.689 202.181, 491.572 202.860, 465 210.051 C 453.880 213.060, 438.616 220.903, 428.180 228.968 L 418.951 236.101 416.225 234.247 C 414.726 233.226, 411.475 231.549, 409 230.518 C 401.031 227.199, 388.325 218.195, 384.069 212.849 C 374.515 200.850, 371.316 189.860, 370.433 166 C 369.489 140.488, 364.747 134.076, 352.327 141.520 M 680.725 142.752 C 677.259 146.581, 676.804 150.034, 677.519 167.076 C 678.519 190.913, 676.197 199.944, 666.287 210.763 C 656.861 221.054, 644.819 226.160, 625.805 227.930 C 606.902 229.689, 599.424 233.105, 600.174 239.638 C 600.647 243.766, 604.780 245.545, 610.531 244.097 C 624.458 240.590, 631.236 244.066, 655.688 267.258 C 672.186 282.906, 678.511 287, 686.189 287 C 711.532 287, 726.856 213.858, 710.575 170.604 C 702.535 149.244, 687.524 135.238, 680.725 142.752 M 354.280 144.971 C 347.626 149.028, 339.506 163.532, 336.069 177.500 C 326.450 216.589, 334.472 256.864, 356.914 282.153 L 360.733 286.457 373.116 274.590 C 383.631 264.516, 401.621 249.357, 412.563 241.352 C 416.278 238.634, 416.043 238.403, 403 231.910 C 394.354 227.606, 391.170 225.343, 384.966 219.092 C 371.348 205.368, 367.432 194.284, 366.157 165.854 C 365.131 142.977, 363.179 139.545, 354.280 144.971 M 682.055 148.250 C 681.266 150.498, 681.122 156.587, 681.587 168 C 682.599 192.832, 680.088 201.569, 668.364 213.997 C 657.663 225.340, 647.004 229.814, 625.500 231.987 C 608.780 233.677, 602.922 235.749, 604.350 239.470 C 604.858 240.795, 605.700 241.076, 607.762 240.609 C 625.126 236.683, 631.994 239.740, 655.500 261.857 C 671.314 276.736, 678.463 281.984, 683.916 282.716 C 707.118 285.828, 722.123 214.276, 706.973 172.764 C 699.406 152.030, 685.522 138.371, 682.055 148.250 M 498.500 208.616 C 463.831 212.245, 447.006 218.486, 426.500 235.321 C 419.652 240.944, 419.818 240.640, 417.348 252 C 414.207 266.448, 414.743 280.007, 418.781 288.207 C 428.495 307.936, 449.064 312.702, 466.666 299.301 C 471.228 295.828, 476.455 287.768, 480.479 278 C 485.610 265.546, 490.284 262.562, 498.300 266.621 C 502.977 268.989, 504.499 270.535, 512.096 280.634 C 528.760 302.788, 550.539 315.227, 573 315.419 C 590.967 315.572, 594.082 311.149, 584.116 299.634 C 569.404 282.636, 568.671 276.349, 579.902 263.515 C 600.415 240.073, 587.367 217.410, 549.375 210.496 C 540.764 208.929, 507.316 207.693, 498.500 208.616 M 187 268.673 C 153.382 274.065, 103.810 296.124, 94.883 309.664 C 89.782 317.401, 92.226 323.325, 114.003 356.009 C 142.226 398.368, 151.873 408.969, 170.878 418.507 C 195.654 430.941, 231.803 427.421, 267.774 409.071 C 287.491 399.013, 295.904 390.433, 295.972 380.315 C 296.075 364.966, 281.167 363.666, 253.365 376.598 C 232.203 386.441, 221.798 389.182, 205.500 389.205 C 178.454 389.244, 156.375 378.188, 135.225 354.016 C 120.979 337.735, 120.286 331, 132.855 331 C 139.208 331, 147.339 328.317, 164.228 320.648 C 195.815 306.304, 209.756 304.169, 230 310.575 C 249.352 316.699, 279.600 341.146, 293.390 361.808 C 295.846 365.489, 300.251 370.975, 303.178 374 C 306.105 377.025, 309.912 382.156, 311.637 385.403 C 315.326 392.345, 314.595 394.141, 318.527 368.500 C 323.897 333.495, 325.270 328.258, 331.511 318.983 L 334.868 313.995 332.184 314.747 C 330.708 315.161, 326.125 315.464, 322 315.420 C 311.619 315.309, 306.279 312.981, 286.515 299.951 C 256.769 280.338, 243.438 273.929, 224.343 270.059 C 214.826 268.130, 194.979 267.394, 187 268.673 M 807.286 271.026 C 778.945 274.613, 763.072 283.523, 737.956 309.942 C 730.007 318.303, 722.100 326.011, 720.384 327.072 C 712.417 331.995, 707.311 327.914, 704.124 314.076 C 701.601 303.118, 698.780 297.566, 694.923 295.968 C 688.805 293.434, 684.518 297.985, 684.724 306.793 C 684.904 314.478, 689.945 324.091, 700.039 336 C 712.865 351.132, 719.368 363.963, 722.067 379.464 L 723.207 386.011 728.854 380.875 C 731.959 378.050, 734.908 374.560, 735.407 373.119 C 737.395 367.380, 741.830 361.900, 755.363 348.460 C 791.868 312.207, 819.445 305.209, 861.500 321.526 C 867.550 323.873, 875.731 326.289, 879.680 326.895 C 892.136 328.806, 895.193 331.139, 893.102 337.138 C 891.941 340.467, 871.732 364.280, 862.716 372.943 C 843.655 391.255, 819.177 395.512, 791.179 385.384 C 770.004 377.724, 766.431 376.730, 758.309 376.245 C 748.312 375.647, 741.801 376.531, 738.901 378.879 C 736.833 380.554, 736.783 380.929, 737.974 385.893 C 741.144 399.104, 765.059 415.799, 790.794 422.765 C 804.472 426.467, 838.737 426.699, 851.500 423.176 C 879.940 415.326, 898.212 398.577, 918.800 361.484 C 930.064 341.190, 939 318.618, 939 310.461 C 939 299.920, 930.017 292.984, 906.142 285.087 C 871.499 273.630, 831.577 267.951, 807.286 271.026 M 200.477 311.988 C 191.767 313.268, 184.042 315.965, 167.531 323.487 C 148.985 331.936, 139.768 335, 132.895 335 C 127.046 335, 126.841 335.781, 130.979 342.306 C 140.985 358.084, 163.203 375.827, 179.838 381.325 C 202.375 388.774, 221.082 386.695, 250.633 373.457 C 268.828 365.306, 274.250 363.752, 283.036 364.169 C 286.869 364.351, 290.003 364.317, 290.002 364.092 C 289.994 362.650, 280.421 351.777, 271.741 343.351 C 245.272 317.656, 224.402 308.471, 200.477 311.988 M 814.477 317.988 C 795.082 320.839, 779.148 330.254, 757.351 351.742 C 747.939 361.021, 738.358 372.692, 739.344 373.678 C 739.503 373.836, 741.175 373.523, 743.060 372.983 C 753.137 370.093, 767.959 372.339, 786.500 379.565 C 814.791 390.592, 835.996 389.064, 854.927 374.636 C 860.028 370.748, 884.472 343.829, 888.476 337.690 C 891.040 333.759, 889.324 332.369, 880.156 330.952 C 873.136 329.867, 867.803 328.235, 852.690 322.551 C 840.350 317.909, 826.368 316.240, 814.477 317.988 M 361.500 438.909 C 349.262 444.248, 350.937 478.579, 364.011 490.391 C 373.680 499.126, 387.930 496.592, 392.649 485.298 C 395.788 477.785, 393.352 462.270, 387.605 453.166 C 381.243 443.088, 368.222 435.976, 361.500 438.909 M 362.235 443.037 C 356.857 445.197, 357.268 453.371, 363.088 460 L 366.160 463.500 365.578 460.115 C 364.706 455.042, 366.602 449.456, 370.136 446.691 L 373.224 444.274 369.963 443.137 C 366.174 441.816, 365.301 441.805, 362.235 443.037 M 371.611 450.532 C 365.508 456.635, 372.228 470.892, 379.398 467.055 C 383.811 464.693, 385.135 459.095, 382.490 453.980 C 379.991 449.149, 374.678 447.465, 371.611 450.532 M 664.500 450.867 C 640.597 461.764, 638.114 500, 661.310 500 C 675.398 500, 683.541 486.952, 682.839 465.500 C 682.515 455.596, 682.367 454.988, 679.563 452.063 C 676.050 448.399, 670.825 447.984, 664.500 450.867 M 668 453.759 C 668 454.177, 668.933 455.102, 670.074 455.814 C 672.630 457.410, 674.989 462.834, 675.033 467.218 L 675.067 470.500 677.033 468.139 C 679.444 465.246, 679.661 458.389, 677.443 455.223 C 675.924 453.054, 668 451.826, 668 453.759 M 659.954 459.282 C 652.029 465.527, 653.884 475, 663.031 475 C 668.108 475, 670.117 473.150, 670.699 467.939 C 671.542 460.392, 665.116 455.214, 659.954 459.282 M 357.499 464.500 C 360.356 486.191, 372.541 497.428, 384.622 489.512 C 389.542 486.288, 391.489 475.902, 388.912 466.621 L 387.835 462.742 385.962 465.823 C 383.995 469.056, 379.350 472.015, 376.300 471.978 C 372.893 471.936, 365.491 467.885, 361.170 463.697 L 356.840 459.500 357.499 464.500 M 649.643 475.037 C 647.271 486.893, 652.286 496, 661.185 496 C 669.989 496, 676.486 488.918, 678.474 477.156 L 679.173 473.016 673.485 476.008 C 664.702 480.628, 657.219 480.028, 652.393 474.318 L 650.285 471.825 649.643 475.037 M 469.500 625.193 C 444.236 626.288, 424.760 630.335, 411.867 637.169 C 393.393 646.960, 378.508 667.974, 375.402 688.650 C 374.618 693.873, 373.254 699.542, 372.371 701.249 C 367.640 710.398, 370.156 737.673, 377.024 751.690 C 384.356 766.653, 393.379 774.393, 413 782.550 C 423.856 787.063, 424.892 787.751, 431.500 794.822 C 448.286 812.788, 451.784 815.839, 460.263 819.915 C 476.047 827.504, 494.216 830.575, 518 829.674 C 551.371 828.409, 571.997 821.224, 596.063 802.482 C 609.598 791.940, 613.640 789.598, 627.278 784.394 C 659.201 772.212, 673.988 754.352, 678.172 722.925 C 681.763 695.952, 666.730 658.941, 645.748 643.100 C 628.926 630.399, 610.710 626.915, 562.500 627.176 C 548.750 627.251, 529.850 626.789, 520.500 626.150 C 497.190 624.557, 488.111 624.387, 469.500 625.193 M 432.304 665.897 C 422.419 672.108, 428.303 689.866, 444.102 701.496 C 450.002 705.840, 459.266 710, 463.038 710 C 466.129 710, 465.355 711.727, 460.750 715.106 C 453.460 720.454, 448.373 722.126, 437 722.909 C 425.369 723.709, 422.734 724.679, 420.510 728.980 C 413.505 742.526, 435.731 766.832, 463.455 775.944 C 480.255 781.466, 488.062 782.465, 514.500 782.477 C 541.111 782.490, 550.857 781.269, 567.500 775.837 C 594.148 767.140, 616 746.862, 616 730.831 C 616 722.954, 614.110 721.839, 598.500 720.503 C 591.258 719.884, 583.475 716.960, 579 713.179 L 576.500 711.067 579.661 711.033 C 588.437 710.941, 602.463 703.991, 608.011 696.986 C 618.982 683.134, 614.686 666.065, 600.217 666.015 C 591.847 665.986, 578.182 675.808, 570.983 687.027 C 559.429 705.031, 576.555 725, 603.549 725 C 610.230 725, 613.563 727.534, 612.540 731.837 C 608.382 749.335, 588.171 765.856, 561.612 773.468 C 532.460 781.823, 486.143 780.636, 460.860 770.886 C 436.981 761.677, 417.312 739.246, 424.899 729.876 C 426.593 727.785, 427.922 727.458, 437.149 726.868 C 449.688 726.066, 456.932 723.572, 463.490 717.800 C 477.019 705.892, 476.924 695.785, 463.130 679.398 C 451.821 665.963, 440.259 660.899, 432.304 665.897 M 433.336 670.573 C 424.681 679.228, 448.057 705.996, 464.271 705.999 C 474.843 706.001, 469.468 689.925, 454.138 675.690 C 445.491 667.661, 438.072 665.837, 433.336 670.573 M 592.052 672.203 C 578.447 678.937, 567.516 697.034, 572.478 704.607 C 574.122 707.115, 574.550 707.230, 580.496 706.752 C 596.127 705.498, 610 693.444, 610 681.119 C 610 670.809, 602.448 667.057, 592.052 672.203" stroke="none" fill="#2a2512" fill-rule="evenodd"/>
</svg>