<svg xmlns="http://www.w3.org/2000/svg" width="1024" height="1024" viewBox="0 0 1024 1024" version="1.1">
	<path d="M 438.332 249.806 C 426.852 253.874, 421.307 260.550, 399.942 296.037 C 383.569 323.230, 374.912 343.189, 360.487 387 C 339.466 450.848, 319.950 499.667, 296.784 546.356 C 291.912 556.176, 284.516 571.476, 280.350 580.356 C 261.799 619.895, 253.782 633.844, 239.373 651.650 C 216.481 679.939, 197.900 689.534, 150.500 697.539 C 138.950 699.489, 125.900 702.001, 121.500 703.120 C 111.908 705.560, 97.236 712.221, 96.346 714.540 C 95.197 717.534, 98.148 717.997, 102.444 715.495 C 111.506 710.218, 124.438 706.711, 150.420 702.483 C 183.354 697.124, 200.144 691.438, 217.187 679.871 C 236.061 667.061, 255.742 641.416, 271.959 608.500 C 323.736 503.404, 339.249 467.011, 362.117 397 C 370.489 371.367, 369.829 372.944, 371.177 375.352 C 371.742 376.361, 373.750 377.833, 375.639 378.622 C 382.508 381.493, 390.456 376.876, 399.660 364.668 C 407.217 354.644, 412.087 350, 415.039 350 C 418.119 350, 418.540 350.717, 423.555 364.500 C 431.345 385.907, 439.828 394.005, 451.250 390.935 C 457.486 389.258, 462.182 383.782, 465.939 373.808 C 476.549 345.634, 477.469 345.103, 490.683 359.552 C 504.472 374.628, 513.028 380, 523.254 380 C 528.991 380, 529.456 379.807, 533.515 375.748 L 537.768 371.496 541.461 380.998 C 544.660 389.229, 555.621 412.010, 596.796 496 C 603.474 509.621, 609.427 519.542, 623.654 540.759 C 649.924 579.932, 667.849 610.339, 683.422 642.142 C 693.751 663.235, 701.288 674.373, 713.459 686.528 C 730.007 703.054, 740.746 707.252, 772.500 709.607 C 782.950 710.382, 792.909 711.281, 794.632 711.604 C 796.507 711.957, 798.046 711.735, 798.468 711.052 C 800.665 707.496, 792.133 705.423, 771.828 704.577 C 729.590 702.818, 711.778 688.415, 684.623 634.060 C 668.916 602.621, 653.265 576.147, 630.305 542.185 L 615.895 520.870 618.412 518.891 C 619.809 517.792, 624.745 509.356, 629.511 499.920 L 638.095 482.929 640.682 484.965 C 646.250 489.344, 651.067 487.464, 663.271 476.148 C 674.203 466.012, 675.431 466.331, 682.434 481.130 C 688.116 493.137, 692.931 498, 699.135 498 C 706.978 498, 712.096 492.808, 717.056 479.817 C 721.898 467.136, 724.562 467.077, 736.515 479.385 C 746.693 489.866, 751.734 493, 758.413 493 C 764.319 493, 767.587 491.405, 770.139 487.276 C 771.288 485.416, 772.352 484.031, 772.503 484.197 C 772.654 484.364, 774.677 489, 776.999 494.500 C 784.522 512.318, 796.610 536.069, 808.045 555.500 C 822.535 580.121, 831.511 596.304, 842.990 618.500 C 868.401 667.637, 885.046 687.618, 911.500 700.743 C 922.274 706.089, 946.904 712.742, 950.628 711.312 C 953.411 710.244, 951.583 707.522, 947.489 706.640 C 913.737 699.362, 898.453 691.144, 881.223 671.011 C 869.401 657.196, 864.285 648.662, 837.760 598.500 C 832.525 588.600, 822.335 570.475, 815.115 558.222 C 800.351 533.166, 793.533 519.935, 783.056 496 C 773.006 473.041, 770.496 467.988, 758.964 447.500 C 733.911 402.988, 720.636 388.527, 704.932 388.638 C 687.028 388.765, 668.417 413.373, 630.951 486.455 C 623.267 501.444, 616.126 514.481, 615.082 515.426 C 613.250 517.084, 612.996 516.789, 607.660 506.821 C 604.621 501.145, 596.540 484.800, 589.703 470.500 C 582.866 456.200, 571.833 433.636, 565.186 420.358 C 550.959 391.939, 545.586 379.641, 540.565 364 C 535.363 347.795, 525.384 331.798, 495.653 292 C 468.293 255.375, 453.450 244.449, 438.332 249.806 M 440.994 253.885 C 431.640 256.915, 426.163 262.997, 411.017 287.172 C 391.580 318.195, 373.997 355.757, 373.999 366.250 C 374 369.666, 374.562 371.562, 376 373 C 380.680 377.680, 385.714 374.393, 398.675 358.199 C 413.583 339.571, 419.566 340.028, 427.043 360.368 C 433.705 378.493, 438.453 385.244, 445.460 386.559 C 453.102 387.992, 457.639 382.844, 463.989 365.530 C 473.244 340.297, 477.547 339.269, 495.889 357.906 C 507.815 370.025, 513.738 374.293, 520.197 375.424 C 531.514 377.405, 537.486 365.950, 531.628 353.500 C 527.229 344.149, 501.943 307.434, 484.109 284.500 C 465.026 259.960, 451.621 250.442, 440.994 253.885 M 699.080 394.244 C 688.352 397.829, 661.506 435.464, 645.223 469.746 C 637.829 485.314, 646.618 486.632, 660.500 472.036 C 671.944 460.004, 678.687 461.720, 686.553 478.668 C 691.799 489.971, 694.546 493, 699.553 493 C 704.508 493, 707.996 489.092, 712.186 478.845 C 717.237 466.492, 723.444 462.306, 730.112 466.757 C 731.549 467.715, 736.724 472.622, 741.612 477.660 C 751.558 487.911, 756.387 490.325, 762.161 487.933 C 770.376 484.530, 770.161 477.651, 761.337 461.611 C 729.300 403.380, 715.720 388.684, 699.080 394.244" stroke="none" fill="#2f6b4f" fill-rule="evenodd"/>
</svg>