<svg xmlns="http://www.w3.org/2000/svg" width="1024" height="1024" viewBox="0 0 1024 1024" version="1.1">
	<path d="M 506 35 C 502.991 38.009, 503.388 44.207, 507.087 52 C 509.750 57.608, 510.083 59.186, 509.512 63.500 C 509.149 66.250, 508.498 79.099, 508.066 92.054 C 507.226 117.223, 506.736 119.609, 502.221 120.534 C 494.944 122.024, 491.940 123.243, 490.939 125.113 C 488.001 130.604, 493.295 132.640, 514.323 134.107 C 533.167 135.421, 537.070 134.998, 539.957 131.328 C 544.172 125.969, 541.352 122.537, 531.176 120.643 C 527.148 119.894, 523.178 118.606, 522.354 117.782 C 520.538 115.966, 519.398 107.663, 518.061 86.500 C 517.477 77.258, 516.287 67.754, 515.244 64 C 514.004 59.541, 513.665 56.244, 514.161 53.500 C 516.928 38.209, 512.600 28.400, 506 35 M 508.176 37.224 C 506.526 38.874, 506.713 43.243, 508.641 48.061 C 510.715 53.243, 511.963 51.679, 511.985 43.872 C 512.001 37.867, 510.374 35.026, 508.176 37.224 M 511.663 78.479 C 511.298 84.437, 511 94.169, 511 100.106 C 511 111.653, 509.660 120.207, 507.582 121.932 C 506.878 122.516, 503.879 123.454, 500.918 124.015 C 494.038 125.320, 491.508 127.482, 495.213 128.891 C 498.668 130.204, 529.319 132.350, 533.480 131.570 C 541.881 129.994, 539.491 124.810, 529.836 123.667 C 518.468 122.321, 517.139 119.499, 515.409 93.029 C 513.756 67.739, 512.596 63.232, 511.663 78.479 M 495.889 136.037 C 473.991 138.011, 456.724 146.617, 462.299 152.778 C 463.252 153.831, 465.825 155.230, 468.016 155.887 C 476.426 158.406, 471.903 161.853, 455.371 165.522 C 428.762 171.429, 411.489 179.193, 408.373 186.649 C 407.603 188.492, 406.267 190, 405.403 190 C 402.661 190, 389.046 195.872, 384.439 199.042 C 369.740 209.155, 379.348 222.639, 406.292 229.705 C 418.012 232.779, 419.007 230.081, 408.556 223.567 C 395.398 215.367, 397.709 211.408, 419 205.676 C 477.352 189.965, 561.499 189.258, 611.204 204.061 C 632.534 210.413, 634.256 214.143, 619.822 222.728 C 607.003 230.354, 609.983 233.354, 625.931 228.879 C 661.105 219.009, 662.812 202.522, 629.838 191.165 C 621.740 188.377, 620.077 187.441, 619.562 185.390 C 618.044 179.342, 597.607 170.531, 573.138 165.374 C 564.979 163.654, 559.398 160.784, 560.559 158.905 C 560.877 158.390, 562.665 157.331, 564.533 156.551 C 571.258 153.741, 569.983 148.075, 561.669 143.832 C 550.869 138.320, 516.174 134.209, 495.889 136.037 M 483.974 140.871 C 469.502 144.043, 460.544 149.846, 466.769 152.016 C 474.317 154.648, 476.829 158.091, 473.835 161.699 C 472.692 163.076, 472.782 163.210, 474.508 162.699 C 483.119 160.150, 535.500 159.597, 552.226 161.878 C 557.804 162.639, 557.938 162.601, 557.396 160.443 C 556.821 158.152, 560.153 154, 562.566 154 C 563.220 154, 564.359 153.272, 565.098 152.382 C 567.973 148.918, 557.991 144.246, 541.560 141.365 C 527.698 138.935, 494.123 138.647, 483.974 140.871 M 503.500 163.667 C 460.420 165.358, 423.535 174.286, 412.913 185.593 C 410.184 188.498, 410.658 188.525, 421.211 186.077 C 475.123 173.567, 558.067 173.329, 610.457 185.532 C 617.285 187.122, 618.525 186.684, 614.985 183.931 C 602.681 174.364, 570.640 166.123, 537.500 164.001 C 523.152 163.083, 519.323 163.045, 503.500 163.667 M 494.937 180.061 C 443.039 182.422, 395.941 192.383, 384.402 203.439 C 379.476 208.159, 379.214 209.199, 381.857 213.532 C 384.219 217.407, 402.678 227, 407.770 227 C 408.021 227, 406.045 225.537, 403.380 223.750 C 390.248 214.942, 396.168 208.331, 423.308 201.495 C 486.638 185.543, 575.464 186.730, 621.113 204.137 C 635.822 209.746, 636.545 216.689, 623.204 224.243 C 616.163 228.231, 616.962 228.463, 627.061 225.366 C 665.499 213.577, 654.841 197.467, 601.739 187.092 C 578.371 182.526, 533.889 178.467, 515 179.176 C 513.075 179.248, 504.047 179.646, 494.937 180.061 M 518.301 197.958 C 514.477 200.290, 513.446 203.615, 512.473 216.750 L 511.788 226 508.932 226 C 505.722 226, 505.301 224.991, 502.585 210.788 C 501.774 206.546, 500.626 202.169, 500.032 201.061 C 496.566 194.584, 484.445 196.092, 482.067 203.296 C 481.048 206.385, 481.952 218.596, 483.619 224.250 C 483.953 225.382, 483.591 226, 482.595 226 C 481.574 226, 480.517 224.066, 479.454 220.250 C 474.984 204.205, 473.202 201.394, 466.846 200.362 C 462.459 199.651, 456.693 202.013, 454.445 205.443 C 452.342 208.654, 452.960 214.711, 456.147 222.120 C 457.978 226.377, 458.100 227.325, 456.912 228.085 C 454.777 229.451, 452.344 225.870, 449.954 217.847 C 446.467 206.137, 442.054 204.448, 428.666 209.701 C 415.650 214.807, 412.656 221.084, 419.035 229.889 C 422.001 233.984, 422.185 236, 419.591 236 C 416.878 236, 410 241.975, 410 244.332 C 410 249.825, 417.393 253.413, 441.157 259.454 C 450.596 261.854, 458.652 264.421, 459.060 265.158 C 460.699 268.122, 476.069 344.610, 481.468 376.673 C 496.654 466.863, 492.597 532.202, 458.726 742.937 L 450.459 794.373 443.321 795.576 C 420.409 799.436, 414.764 806.160, 428.653 813.047 C 439.316 818.334, 438.967 817.809, 438.717 828.174 C 438.518 836.419, 438.685 837.309, 440.750 838.989 C 443.594 841.304, 443.583 841.613, 440.016 858.799 C 431.552 899.572, 421.511 929.522, 411.229 944.663 C 405.691 952.818, 399.710 958.009, 390.083 963.018 C 381.437 967.516, 379.285 970.013, 380.360 974.300 C 381.447 978.629, 385.683 979.516, 404.500 979.354 C 428.616 979.148, 459.299 976.105, 469.629 972.897 C 472.187 972.102, 473.425 972.318, 476.411 974.080 C 481.248 976.934, 490.654 977.628, 498.762 975.729 C 504.563 974.370, 505.298 974.398, 508.762 976.101 C 514.338 978.844, 526.067 981, 535.416 981 C 551.294 981, 558.098 975.887, 551.453 968.951 C 548.379 965.743, 546.061 949.509, 543.536 913.500 C 542.687 901.400, 541.288 883.175, 540.427 873 C 538.338 848.323, 538.628 843.353, 542.321 840.602 C 547.961 836.400, 574.668 837.460, 579.587 842.082 C 583.503 845.761, 587.125 859.998, 596.866 910 C 604.871 951.095, 604.793 954.326, 595.687 958.565 C 592.834 959.894, 589.747 960.985, 588.827 960.990 C 586.452 961.004, 581 965.841, 581 967.934 C 581 976.419, 608.387 981.065, 647 979.132 C 672.036 977.879, 677.449 975.636, 673.564 968.124 C 672.387 965.848, 669.317 963.805, 660.515 959.443 C 630.179 944.409, 618.869 923.468, 605.479 857.540 C 601.924 840.034, 601.872 839.456, 603.416 834.675 C 604.287 831.978, 605.010 827.235, 605.022 824.135 C 605.047 817.939, 606.054 816.190, 612.182 811.699 C 621.237 805.065, 616.604 798.731, 600.668 795.956 C 595.131 794.992, 593.907 794.424, 593.526 792.646 C 582.454 740.961, 561.999 635.363, 554.562 591.500 C 540.399 507.972, 539.042 448.908, 549.588 375 C 554.627 339.685, 568.546 263.898, 570.179 262.889 C 570.804 262.503, 575.407 261.409, 580.408 260.458 C 617.953 253.321, 626.851 242.204, 601.266 234.400 C 592.401 231.696, 592.058 230.954, 599 229.493 C 611.935 226.770, 617.249 218.516, 610.682 211.350 C 607.579 207.965, 606.605 207.500, 602.605 207.500 C 596.998 207.500, 595.593 208.803, 589.747 219.415 C 585.747 226.678, 579.102 233.966, 581.464 228.500 C 589.943 208.875, 588.991 200, 578.405 200 C 571.614 200, 568.659 203.310, 564.192 215.924 C 559.805 228.309, 557.666 230.346, 559.614 220.283 C 561.889 208.529, 561.476 201.519, 558.365 199.073 C 555.111 196.513, 551.749 196.477, 546.316 198.943 C 541.243 201.247, 539.434 204.445, 538.016 213.624 C 536.919 220.722, 535.107 226.440, 534.232 225.565 C 533.957 225.291, 533.820 220.752, 533.926 215.479 C 534.157 204.047, 532.909 199.522, 528.966 197.483 C 525.111 195.489, 522.133 195.622, 518.301 197.958 M 519.722 201.004 C 517.004 203.142, 516.548 204.991, 515.463 218.250 L 514.829 226 522.343 226 L 529.856 226 530.546 220.475 C 532.651 203.630, 527.702 194.727, 519.722 201.004 M 486.505 201.995 C 484.936 203.728, 484.785 205.135, 485.349 212.745 C 486.380 226.657, 485.893 226, 495.176 226 C 500.066 226, 502.887 225.626, 502.517 225.028 C 502.186 224.493, 501.059 219.558, 500.012 214.063 C 498.965 208.567, 497.618 203.154, 497.019 202.035 C 495.522 199.238, 489.022 199.213, 486.505 201.995 M 548.500 200.945 C 544.427 202.612, 542.716 205.915, 540.867 215.677 C 539.858 221.006, 539.175 225.508, 539.348 225.682 C 539.522 225.855, 543.046 226.283, 547.179 226.632 L 554.695 227.268 555.935 222.384 C 560.347 204.996, 557.644 197.203, 548.500 200.945 M 461.225 203.675 C 455.333 204.895, 454.896 211.609, 459.943 223.372 C 461.929 228.001, 462.188 228.212, 465.142 227.622 C 466.851 227.280, 470.492 227, 473.232 227 C 477.588 227, 478.122 226.780, 477.484 225.250 C 477.082 224.287, 475.881 220.122, 474.814 215.992 C 471.967 204.972, 468.804 202.105, 461.225 203.675 M 572.539 205.370 C 571.224 206.685, 569.014 211.396, 567.574 215.956 C 566.146 220.475, 564.551 224.970, 564.029 225.946 C 563.174 227.544, 563.788 227.786, 570.216 228.383 C 578.270 229.132, 577.898 229.385, 581.071 221.011 C 583.799 213.811, 584.661 206.501, 583.015 204.518 C 581.047 202.147, 575.294 202.615, 572.539 205.370 M 435.206 210.851 C 432.781 212.390, 439.935 230, 442.985 230 C 448.354 230, 450.960 228.794, 449.894 226.802 C 449.317 225.725, 448.167 222.516, 447.338 219.671 C 445.100 212, 443.522 209.997, 439.727 210.015 C 437.952 210.024, 435.918 210.400, 435.206 210.851 M 598.183 212.044 C 596.976 213.168, 594.816 216.431, 593.383 219.294 C 586.691 232.661, 585.512 233.272, 569.932 231.452 C 551.048 229.246, 515.579 228.352, 512.492 230.004 C 510.450 231.097, 509.331 231.099, 506.053 230.017 C 494.574 226.229, 434.631 232.766, 419.505 239.455 C 407.107 244.939, 412.875 249.333, 442 256.594 C 458.446 260.694, 458.489 260.696, 452.848 257.119 C 441.072 249.650, 447.075 241.947, 468.153 237.479 C 494.562 231.880, 558.616 233.477, 574.054 240.119 C 582.646 243.815, 584.577 249.791, 578.894 255.099 C 575.143 258.603, 575.853 258.641, 588 255.590 C 617.222 248.251, 620.179 242.459, 597.749 236.497 C 586.976 233.633, 586.587 229.725, 596.800 226.959 C 610.335 223.292, 614.451 216.932, 606.770 211.551 C 603.749 209.435, 600.802 209.604, 598.183 212.044 M 427.007 213.621 C 418.864 217.087, 417.026 221.964, 421.568 228.056 C 422.980 229.950, 424.442 232.030, 424.818 232.677 C 425.436 233.744, 436.226 232.108, 437.594 230.740 C 437.811 230.523, 436.582 227.005, 434.863 222.922 C 433.144 218.840, 431.459 214.743, 431.119 213.817 C 430.555 212.285, 430.188 212.268, 427.007 213.621 M 487.102 238.011 C 469.089 239.515, 454.492 243.293, 451.153 247.315 C 448.137 250.950, 452.006 254.085, 467.250 260.355 C 472.457 262.497, 472.255 265, 466.875 265 C 462.899 265, 462.771 265.099, 463.339 267.750 C 493.923 410.500, 497.931 454.539, 488.934 549 C 484.174 598.979, 477.378 646.945, 457.497 770.871 C 455.523 783.175, 454.043 793.376, 454.208 793.541 C 454.649 793.982, 466.879 792.454, 467.447 791.887 C 467.998 791.335, 480.845 708.536, 484.496 682 C 487.357 661.208, 491.038 628.290, 494.504 592.500 C 498.109 555.276, 500.772 535.604, 503.154 528.605 C 505.574 521.495, 505.291 493.339, 502.354 449 C 500.446 420.181, 500.175 393.528, 501.753 389.825 C 502.746 387.495, 502.446 386.270, 499.425 380.325 C 497.517 376.571, 494.885 369.225, 493.575 364 C 489.679 348.454, 480 282.951, 480 272.129 C 480 266.861, 479.774 266.298, 477.006 264.662 C 472.020 261.717, 471.592 255.648, 476.189 253.068 C 480.080 250.883, 483 253.665, 483 259.555 L 483 263.799 490.750 265.445 C 512.892 270.147, 515.865 274.352, 516.742 302.212 C 517.585 328.972, 514.242 364.374, 509.543 378.441 L 507.224 385.382 509.570 388.941 C 515.182 397.454, 524.188 429.664, 526.048 447.872 C 526.713 454.383, 527.011 475.804, 526.817 503.170 L 526.500 547.841 524.124 550.369 C 522.494 552.103, 520.453 553.001, 517.624 553.229 C 513.603 553.552, 513.575 553.579, 516.500 554.318 C 526.517 556.847, 530.314 562.134, 532.070 576 C 536.596 611.733, 539.439 627.382, 550.511 677.500 C 561.471 727.115, 576.944 791.277, 578.266 792.600 C 578.958 793.291, 589.866 794.801, 590.390 794.277 C 590.603 794.064, 589.916 789.976, 588.862 785.194 C 584.110 763.626, 566.530 675.162, 560.604 643 C 543.694 551.214, 539.570 516.947, 539.606 468.500 C 539.643 417.494, 544.377 377.563, 560.543 291.875 C 565.990 263.001, 565.954 263.779, 561.813 264.187 C 558.721 264.491, 558.557 264.751, 556.282 273 C 552.712 285.943, 545.522 322.788, 541.508 348.714 C 536.450 381.380, 534.667 386.257, 529.183 382.416 C 524.974 379.468, 524.482 374.689, 524.765 339.500 C 525.438 255.711, 526.370 245.916, 533.732 245.192 C 538.256 244.747, 539.468 247.431, 537.980 254.598 C 536.468 261.878, 537.406 263, 544.997 263 C 553.544 263, 556.617 262.137, 557.871 259.383 C 559.579 255.635, 563.343 254.340, 566.505 256.411 C 568.964 258.023, 569.253 258.007, 572.362 256.085 C 584.417 248.635, 579.435 242.747, 558.262 239.421 C 546.622 237.593, 502.562 236.720, 487.102 238.011 M 531.064 250.750 C 528.513 256.332, 526.798 366.341, 529.119 375.557 C 531.280 384.139, 533.045 380.749, 536.094 362.163 C 544.963 308.094, 550.781 277.968, 553.974 269.569 C 555.541 265.448, 555.477 265.408, 547.982 265.831 C 535.914 266.513, 532.599 263.621, 534.914 254.428 C 536.575 247.830, 533.668 245.053, 531.064 250.750 M 476.921 256.595 C 475.999 257.706, 475.914 258.639, 476.629 259.774 C 478.436 262.639, 480 262.345, 480 259.142 C 480 255.512, 478.708 254.443, 476.921 256.595 M 561.500 260 C 560.718 261.266, 562.042 261.266, 564 260 C 565.293 259.165, 565.266 259.029, 563.809 259.015 C 562.879 259.007, 561.840 259.450, 561.500 260 M 483 271.414 C 483 281.737, 493.688 352.804, 497.082 365.055 C 499.536 373.908, 502.910 382, 504.148 382 C 509.651 382, 516.367 313.383, 513.100 290.537 C 511.058 276.263, 507.509 272.310, 494.180 269.467 C 489.956 268.566, 485.712 267.612, 484.750 267.347 C 483.269 266.939, 483 267.565, 483 271.414 M 504.627 391.261 C 503.540 395.318, 504.005 424.132, 505.502 445.500 C 506.311 457.050, 507.276 478.729, 507.646 493.675 C 508.255 518.317, 508.480 520.892, 510.057 521.305 C 514.674 522.512, 517.261 533.873, 513.539 536.595 C 511.201 538.305, 509.248 537.380, 507.319 533.651 C 505.859 530.828, 505.646 530.725, 504.986 532.522 C 503.831 535.666, 500.312 565.502, 496.497 604.500 C 492.286 647.545, 489.991 666.886, 485.459 697.500 C 480.428 731.488, 472.071 786.106, 471.434 789.163 C 470.889 791.780, 470.954 791.817, 475.190 791.287 C 477.560 790.990, 479.799 790.467, 480.165 790.124 C 480.531 789.781, 482.916 775.100, 485.465 757.500 C 491.666 714.687, 492.773 710.197, 498.692 703.864 L 501.157 701.227 499.016 697.032 C 494.925 689.013, 499.825 686.244, 515 688.001 C 526.793 689.366, 533.151 689.200, 535.441 687.468 C 537.913 685.599, 542.061 685.586, 544.559 687.441 C 547.693 689.769, 545.302 692.433, 539.749 692.801 C 534.569 693.143, 534.627 693.012, 533.419 707 C 532.797 714.195, 534.311 754.232, 535.949 773.933 C 536.994 786.493, 537.270 786.707, 554.500 788.314 C 555.637 788.420, 556.392 787.961, 556.250 787.251 C 554.846 780.226, 549.509 743.172, 547.569 726.975 C 544.595 702.147, 544.740 702.618, 540.289 703.341 C 537.452 703.801, 536.928 703.607, 537.195 702.197 C 537.414 701.039, 538.687 700.403, 541.198 700.193 C 546.888 699.719, 547.943 702.210, 550.129 721.280 C 551.982 737.446, 557.150 774.129, 558.879 783.381 C 559.845 788.553, 561.103 789.960, 564.782 789.985 C 566.037 789.993, 568.625 790.652, 570.532 791.449 C 575.177 793.390, 575.139 794.156, 571.136 779 C 555.532 719.929, 534.150 619.091, 530.080 585.377 C 527.413 563.291, 525.823 560.059, 516.467 557.701 C 507.889 555.540, 508.322 550, 517.069 550 C 523.659 550, 523.468 551.318, 523.801 503.613 C 524.181 449.136, 523.350 440.152, 515.409 412.826 C 510.052 394.393, 505.974 386.236, 504.627 391.261 M 508.582 524.868 C 507.773 526.177, 509.633 532.655, 511.073 533.545 C 511.583 533.860, 512 532.602, 512 530.750 C 512 526.889, 509.738 522.997, 508.582 524.868 M 511.631 568.855 C 509.291 571.441, 507.522 582.288, 505.575 606 C 504.158 623.255, 502.092 656.125, 501.993 663 C 501.967 664.823, 501.083 665.906, 498.728 667 C 494.234 669.088, 493.393 675.559, 497.482 676.585 C 500.240 677.277, 504 674.866, 504 672.404 C 504 670.247, 505.308 670.101, 511.526 671.564 C 514.812 672.336, 520.015 672.976, 523.089 672.984 C 529.312 673.002, 531 671.251, 531 664.779 C 531 658.703, 523.947 590.391, 522.520 582.655 C 520.036 569.181, 515.984 564.045, 511.631 568.855 M 513.056 572.352 C 511.005 577.747, 508.063 610.543, 505.538 656.164 L 504.948 666.828 511.921 668.414 C 515.757 669.286, 520.710 670, 522.928 670 C 528.356 670, 528.571 668.770, 526.552 649.302 C 525.651 640.611, 524.023 624.275, 522.935 613 C 520.611 588.921, 519.493 581.209, 517.388 574.750 C 515.676 569.499, 514.408 568.797, 513.056 572.352 M 499.200 670.200 C 497.761 671.639, 497.615 674, 498.965 674 C 499.856 674, 502 670.868, 502 669.566 C 502 668.595, 500.455 668.945, 499.200 670.200 M 502.014 690.908 C 500.737 691.769, 500.717 692.374, 501.871 695.205 C 504.588 701.869, 504.889 708.304, 504.294 747 L 503.686 786.500 519.354 786.500 C 532.891 786.500, 534.938 786.296, 534.401 785 C 531.202 777.280, 529.006 706.639, 531.600 694.906 L 532.174 692.312 523.133 691.670 C 518.161 691.317, 511.710 690.776, 508.797 690.467 C 505.883 690.158, 502.831 690.357, 502.014 690.908 M 498.684 708.360 C 496.056 712.370, 494.209 720.619, 490.590 744.500 C 485.196 780.099, 483.902 789.236, 484.213 789.530 C 484.614 789.910, 499.252 787.081, 499.819 786.514 C 500.471 785.863, 501.402 706, 500.758 706 C 500.468 706, 499.534 707.062, 498.684 708.360 M 506.344 789.716 C 503.972 790.014, 503.032 790.736, 502.559 792.622 C 501.197 798.049, 486.890 800.219, 483.222 795.555 C 482.054 794.070, 480.552 793.263, 479.399 793.500 C 478.355 793.714, 475.882 794.147, 473.906 794.461 C 470.477 795.006, 470.254 795.288, 469.066 800.594 C 468.382 803.653, 468.045 806.378, 468.318 806.651 C 468.591 806.924, 475.043 806.566, 482.657 805.855 C 497.550 804.465, 539.881 804.441, 563.500 805.810 C 571.200 806.256, 577.680 806.489, 577.899 806.328 C 578.644 805.781, 575.507 795.662, 574.489 795.326 C 573.933 795.143, 573.033 796.007, 572.489 797.246 C 570.886 800.899, 562.938 801.008, 560.112 797.415 C 558.950 795.939, 558 794.166, 558 793.476 C 558 790.704, 520.319 787.961, 506.344 789.716 M 492 791.358 C 488.425 791.986, 485.500 792.950, 485.500 793.500 C 485.500 795.004, 494.152 795.201, 496.921 793.760 C 499.268 792.538, 501.018 789.890, 499.333 790.108 C 498.875 790.167, 495.575 790.730, 492 791.358 M 561 792.671 C 561 795.055, 563.487 797, 566.535 797 C 569.950 797, 571.066 795.777, 568.882 794.427 C 567.398 793.510, 561 792.084, 561 792.671 M 461.259 796.126 C 453.487 797.095, 453.322 797.237, 452.555 803.671 C 451.683 810.975, 448.190 833.689, 447.444 836.899 L 446.887 839.297 454.194 838.676 C 458.212 838.334, 466.675 837.427, 473 836.661 C 491.273 834.448, 499.016 836.453, 501.694 844.094 C 503.305 848.693, 503.261 857.637, 501.469 889.500 C 498.467 942.865, 499.254 965.654, 504.240 969.781 C 505.135 970.523, 508.104 970.087, 514.500 968.276 C 521.479 966.300, 525.983 965.703, 534.561 965.614 L 545.622 965.500 544.874 960.768 C 543.469 951.877, 541.022 925.521, 539.510 903 C 538.680 890.625, 537.297 873.075, 536.437 864 C 534.500 843.557, 535.087 840.717, 541.962 837.250 C 547.814 834.299, 560.559 834.221, 579.395 837.020 C 591.709 838.850, 597.988 838.891, 598.007 837.142 C 598.036 834.330, 591.570 799.290, 590.885 798.553 C 590.402 798.032, 587.500 797.330, 584.436 796.993 C 579.150 796.411, 578.898 796.485, 579.487 798.440 C 583.299 811.095, 582.411 815.711, 575.222 820.607 C 569.196 824.711, 548.667 826.958, 516.974 826.984 C 485.430 827.010, 473.521 824.640, 466.578 816.954 C 462.424 812.356, 462.306 811.330, 465.028 803.420 C 467.699 795.656, 467.537 795.343, 461.259 796.126 M 437.500 799.883 C 421.835 803.769, 420.637 806.198, 431.885 811.267 C 441.592 815.641, 442.446 816.966, 441.648 826.414 C 441.019 833.866, 442.938 840.947, 444.360 836.423 C 444.927 834.619, 450 800.876, 450 798.907 C 450 797.565, 445.397 797.925, 437.500 799.883 M 594.981 798.671 C 594.971 799.127, 596.177 806.884, 597.662 815.910 C 600.405 832.583, 601.786 834.736, 601.930 822.565 L 602 816.629 608.192 810.899 C 613.565 805.927, 614.210 804.958, 613.062 803.574 C 611.183 801.310, 595.021 796.927, 594.981 798.671 M 490 808.482 C 479.825 809.223, 470.277 809.868, 468.781 809.915 C 465.674 810.012, 465.845 811.886, 469.314 815.740 C 475.910 823.069, 503.338 825.695, 545 822.985 C 567.643 821.512, 575.577 819.218, 578.239 813.375 C 579.958 809.603, 578.967 809.380, 557.192 808.647 C 514.098 807.198, 507.828 807.182, 490 808.482 M 472.325 840.459 C 466.279 843.089, 464.488 848.179, 461.054 872.500 C 456.389 905.540, 453.679 947.722, 455.866 953.255 C 457.021 956.179, 460.655 958.235, 467.865 960.044 C 473.139 961.367, 477.423 965.274, 476.687 968.089 C 475.517 972.564, 489.370 975.414, 499.211 972.723 L 501.922 971.982 499.978 968.688 C 495.436 960.989, 495.202 946.813, 498.570 883.500 C 500.460 847.964, 500.055 843.114, 494.979 840.489 C 491.263 838.568, 476.718 838.548, 472.325 840.459 M 452.574 841.918 L 446.649 842.500 443.386 858.203 C 433.652 905.056, 423.421 934.156, 411.067 950.136 C 405.573 957.242, 401.536 960.464, 391.185 966 C 383.495 970.114, 381.604 972.451, 384.327 974.475 C 388.523 977.594, 400.303 977.577, 436.951 974.402 C 473.417 971.242, 482.362 967.319, 464.763 962.206 C 453.703 958.992, 452.584 957.392, 452.148 944.172 C 451.272 917.612, 458.617 855.499, 463.904 844.750 L 465.749 841 462.125 841.168 C 460.131 841.261, 455.834 841.598, 452.574 841.918 M 584.491 843.346 C 586.797 846.865, 590.472 862.172, 597.964 899.456 C 609.121 954.983, 608.902 957.542, 592.522 962.993 C 583.494 965.997, 582.333 968.031, 587.954 970.995 C 594.675 974.539, 600.524 975.244, 627 975.703 C 673.927 976.517, 682.385 973.187, 660 962.713 C 628.710 948.073, 615.774 924.679, 602.419 858.581 C 600.538 849.275, 599 841.617, 599 841.564 C 599 841.510, 595.413 841.397, 591.030 841.313 L 583.059 841.161 584.491 843.346 M 527.500 968.591 C 526.400 968.858, 522.350 969.792, 518.500 970.666 C 508.517 972.933, 508.619 973.537, 519.404 976.029 C 538.056 980.339, 559.030 976.204, 547.846 970.421 C 544.722 968.805, 531.509 967.617, 527.500 968.591" stroke="none" fill="#2a2512" fill-rule="evenodd"/>
</svg>