<svg xmlns="http://www.w3.org/2000/svg" width="1024" height="1024" viewBox="0 0 1024 1024" version="1.1">
	<path d="M 818.892 206.354 C 806.226 211.565, 798.293 221.101, 794.495 235.680 C 786.822 265.139, 806.997 296.171, 840.913 307.078 L 849.380 309.801 842.578 316.847 L 835.775 323.893 832.834 321.719 C 828.652 318.627, 822.427 318.754, 819.811 321.985 C 817.208 325.200, 817.875 328.192, 822.947 336.039 C 828.207 344.178, 830.464 351.977, 828 353.500 C 827.445 353.843, 826.990 353.090, 826.978 351.809 C 826.889 342.477, 815.523 330, 807.111 330 C 800.071 330, 799.513 335.073, 805.519 344.462 C 809.793 351.144, 812.034 357.076, 811.909 361.376 C 811.830 364.067, 811.576 363.737, 810.075 359 C 804.810 342.377, 792.011 331.805, 785.655 338.829 C 783.104 341.647, 783.621 343.942, 788.608 351.956 C 793.768 360.248, 796 365.784, 796 370.292 C 796 374.492, 795.239 373.339, 793.433 366.401 C 789.735 352.201, 778.512 340.578, 770.451 342.602 C 768.531 343.084, 767.104 342.423, 763.990 339.610 C 759.178 335.263, 755.096 334.897, 749.982 338.354 C 726.368 354.318, 663.593 388.182, 581.286 429.360 C 564.354 437.831, 536.550 452.078, 519.500 461.020 C 450.743 497.081, 454.891 495.380, 435.500 495.471 C 422.509 495.532, 422.495 495.534, 415.322 499.242 C 411.374 501.283, 405.545 505.371, 402.369 508.328 L 396.594 513.703 391.205 511.236 C 381.467 506.778, 373.049 508.370, 369.199 515.398 C 366.231 520.816, 366.863 540.462, 370.324 550.380 C 371.836 554.714, 372.944 558.372, 372.787 558.509 C 369.920 560.999, 303.995 597.591, 249.432 626.977 C 226.212 639.484, 225.018 640.586, 225.007 649.541 L 225 654.582 201.883 666.541 C 170.587 682.731, 168.723 684.033, 166.616 691.172 C 166.345 692.092, 158.557 697.930, 149.311 704.146 C 116.970 725.888, 95.363 743.567, 96.184 747.614 C 96.501 749.178, 97.413 749.479, 101.533 749.379 C 107.103 749.244, 114.446 746.411, 142.500 733.573 C 152.400 729.043, 163.546 724.082, 167.268 722.548 C 180.508 717.093, 181.332 714.957, 175 702.500 C 170.504 693.656, 170.172 692, 172.896 692 C 177.762 692, 184.763 705.419, 183.476 712.279 C 183.001 714.806, 183.284 716.141, 184.561 717.418 C 186.906 719.763, 189.273 719.033, 201.952 712.056 C 207.753 708.864, 218.444 703.027, 225.709 699.086 C 245.672 688.255, 246.381 686.319, 236.644 669.226 C 229.376 656.468, 229.412 656.589, 232.508 655.178 C 238.068 652.645, 242.346 655.832, 247.466 666.323 C 252.963 677.585, 253.138 681.188, 248.401 685.527 C 245.285 688.381, 244.748 689.378, 245.601 690.729 C 247.711 694.075, 252.054 696.465, 255.844 696.365 C 259.866 696.260, 259.863 696.261, 295 675.848 C 328.394 656.448, 368.888 634.056, 386.638 625.175 C 396.278 620.351, 403.626 616.019, 404.888 614.415 C 411.785 605.647, 402.556 583.412, 383.664 563.279 C 378.416 557.687, 378.121 555.510, 382.464 554.420 C 392.511 551.898, 407.842 567.224, 415.061 587.006 C 419.607 599.462, 418.744 606.176, 412.041 610.500 C 405.619 614.642, 407.215 620.230, 417.592 629.937 C 435.350 646.549, 450.962 646.061, 455.380 628.756 L 456.721 623.500 462.745 622.913 C 473.944 621.821, 483.232 613.891, 491.001 598.787 C 497.076 586.979, 498.792 585.008, 510.254 576.668 C 522.796 567.542, 534.039 560.662, 553 550.510 C 585.129 533.307, 602.101 522.455, 645 491.686 C 712.310 443.407, 727.495 433.772, 769.057 412.971 C 789.963 402.509, 792 400.891, 792 394.757 L 792 390.960 816.750 374.546 C 830.362 365.519, 842.789 356.787, 844.364 355.142 C 849.757 349.512, 849.062 340.658, 842.502 331.431 L 839.076 326.613 843.810 321.557 C 846.414 318.775, 849.660 315.133, 851.022 313.462 L 853.500 310.423 880 311.173 C 915.726 312.184, 924.875 314.110, 939.205 323.636 C 951.273 331.659, 961.853 347.025, 963.486 358.901 C 964.051 363.004, 964.560 364, 966.094 364 C 971.406 364, 964.187 343.525, 955.015 332.574 C 939.122 313.600, 923.948 308.332, 882.285 307.325 L 856.070 306.692 858.615 302.596 C 878.039 271.330, 878.020 233.923, 858.569 214.412 C 848.163 203.975, 832.439 200.782, 818.892 206.354 M 823 208.879 C 809.393 213.338, 799.986 225.505, 797.659 241.659 C 794.520 263.449, 807.370 286.720, 828.614 297.718 C 837.337 302.234, 850.817 306.620, 852.006 305.329 C 852.426 304.873, 854.829 300.900, 857.345 296.500 C 876.210 263.513, 871.746 223.282, 847.845 210.884 C 843.157 208.452, 828.030 207.231, 823 208.879 M 823.200 324.200 C 821.377 326.023, 821.675 327.005, 826.025 333.500 C 831.405 341.531, 833.466 348.555, 832.020 353.925 C 829.930 361.688, 824.691 361.140, 823.178 353 C 821.347 343.146, 814.040 334, 807.997 334 C 804.114 334, 804.216 335.030, 808.821 342.392 C 815.911 353.723, 817.462 360.271, 814.442 366.112 C 812.513 369.842, 808.911 369.781, 807.817 366 C 804.699 355.220, 803.470 352.089, 800.871 348.312 C 797.796 343.843, 793.589 341, 790.050 341 C 787.048 341, 787.504 342.933, 792.195 350.095 C 799.033 360.536, 801.338 368.969, 798.848 374.434 C 796.335 379.949, 791.666 378.564, 790.615 371.991 C 788.885 361.178, 781.491 349.413, 775.002 347.150 C 771.143 345.805, 771.097 347.048, 774.826 351.856 C 780.295 358.908, 784.872 367.598, 788.122 377.100 L 791.406 386.701 815.343 370.751 C 842.235 352.832, 844.010 351.305, 843.978 346.104 C 843.911 335.124, 828.511 318.889, 823.200 324.200 M 747 344.884 C 737.253 351.179, 713.688 364.947, 698.500 373.221 C 669.963 388.766, 653.885 397.111, 592 428.497 C 555.975 446.768, 513.450 468.601, 497.500 477.016 C 456.300 498.750, 450.870 500.737, 436.161 499.454 C 425.934 498.562, 419.619 500.375, 410.450 506.838 C 398.706 515.116, 398.782 514.820, 406.848 520.817 C 433.267 540.462, 455.505 579.196, 456.758 607.750 L 457.252 619 461.376 618.978 C 471.198 618.926, 479.764 611.550, 487.790 596.233 C 496.672 579.284, 510.408 568.791, 555.494 544.516 C 587.377 527.349, 602.811 517.204, 663.500 473.521 C 706.355 442.675, 728.018 429.231, 764.500 410.843 C 775.500 405.299, 785.288 400.071, 786.250 399.226 C 791.681 394.459, 783.075 369.421, 770.116 352.284 C 759.425 338.148, 758.091 337.721, 747 344.884 M 638.500 424.680 C 614.116 430.143, 554.858 464.481, 536.227 483.944 C 510.456 510.865, 537.045 528.495, 578.436 511.932 C 608.709 499.818, 653.673 469.540, 662.982 455 C 674.847 436.468, 661.219 419.590, 638.500 424.680 M 636.231 429.490 C 618.345 434.509, 582.763 453.513, 557.360 471.614 C 534.421 487.961, 525.843 500.445, 532.092 508.390 C 543.990 523.515, 583.997 510.863, 632.938 476.499 C 658.536 458.525, 668.145 444.501, 661.653 434.593 C 657.731 428.608, 647.031 426.460, 636.231 429.490 M 377.308 513.010 C 370.347 515.813, 368.788 536.984, 374.530 550.727 L 375.941 554.103 378.898 551.917 C 388.164 545.067, 404.126 556.156, 414.875 576.911 C 424.054 594.636, 424.338 604.634, 415.876 612.121 C 410.763 616.644, 411.082 618.082, 418.943 625.943 C 429.907 636.907, 442.293 640.861, 447.950 635.203 C 452.015 631.139, 453.783 622.486, 451.141 619.590 C 448.621 616.828, 446.921 613.362, 441.977 600.899 C 435.459 584.468, 424.292 563.782, 411.193 543.873 C 404.545 533.768, 398.432 523.889, 397.610 521.920 C 395.684 517.306, 394.759 516.605, 387.282 514.091 C 380.373 511.768, 380.387 511.770, 377.308 513.010 M 403 523.868 C 403 524.385, 407.216 531.038, 412.370 538.654 C 428.541 562.551, 437.550 579.132, 446.517 601.500 C 454.058 620.311, 455.321 620.342, 452.503 601.646 C 449.156 579.440, 433.535 551.139, 414.184 532.223 C 406.619 524.828, 403 522.124, 403 523.868 M 370 564.922 C 366.975 567.013, 356.850 572.895, 347.500 577.994 C 338.150 583.093, 308.675 599.162, 282 613.703 C 255.325 628.243, 232.488 641.259, 231.250 642.626 C 228.372 645.806, 227.985 652.648, 230.750 651.466 C 237.061 648.766, 242.295 650.651, 246.816 657.251 C 256.193 670.940, 258.295 683.303, 251.997 687.715 C 249.299 689.604, 249.482 690.543, 252.816 691.924 C 256.585 693.485, 257.833 692.945, 277.798 681.123 C 312.925 660.324, 363.405 632.288, 386.730 620.624 C 403.563 612.206, 403.752 611.999, 402.698 603.101 C 401.538 593.300, 393.559 579.662, 382.106 567.903 L 375.500 561.120 370 564.922 M 218.500 662.328 C 215.200 664.146, 203.613 670.266, 192.750 675.929 C 181.887 681.591, 173 686.525, 173 686.893 C 173 687.261, 174.307 688.055, 175.905 688.658 C 181.615 690.813, 188.980 705.091, 187.737 711.595 C 187.019 715.351, 188.237 714.864, 213.171 701.442 C 237.680 688.248, 239.345 687.047, 238.768 682.965 C 238.314 679.757, 226.841 659.072, 225.500 659.044 C 224.950 659.032, 221.800 660.510, 218.500 662.328 M 151 707.670 C 124.642 725.680, 98.811 746, 102.274 746 C 103.964 746, 117.148 740.525, 136 731.993 C 147.275 726.891, 160.550 721.027, 165.500 718.963 C 171.265 716.558, 174.625 714.587, 174.848 713.478 C 175.187 711.790, 168.156 696.961, 167.054 697.039 C 166.749 697.061, 159.525 701.845, 151 707.670" stroke="none" fill="#2f6b4f" fill-rule="evenodd"/>
</svg>