<svg xmlns="http://www.w3.org/2000/svg" width="1024" height="1024" viewBox="0 0 1024 1024" version="1.1">
	<path d="M 493.734 46.034 C 484.818 48.263, 476.712 54.967, 471.830 64.151 C 467.934 71.478, 468.400 86.836, 472.720 93.519 C 476.724 99.713, 481.067 102.700, 488.263 104.210 L 493.846 105.381 491.914 109.169 C 490.118 112.689, 488.089 120.290, 486.552 129.250 C 485.945 132.790, 485.702 133.001, 482.205 133.012 C 480.167 133.018, 476.025 133.688, 473 134.500 C 465.667 136.468, 466 136.613, 466 131.455 C 466 123.212, 459.171 119.525, 448.377 121.940 C 426.320 126.876, 431.620 158, 454.518 158 C 462.535 158, 466.963 153.790, 466.994 146.137 C 466.998 145.143, 467.883 144.935, 470.250 145.368 C 472.038 145.695, 475.899 146.263, 478.832 146.630 L 484.164 147.297 483.548 156.898 C 483.208 162.179, 482.684 169.028, 482.382 172.119 L 481.834 177.737 476.167 178.340 C 473.050 178.672, 468.620 179.236, 466.321 179.594 L 462.143 180.244 461.021 176.076 C 457.952 164.679, 439.807 165.505, 434.096 177.302 C 427.862 190.179, 435.589 202, 450.239 202 C 457.400 202, 461.489 198.982, 462.509 192.945 C 463.036 189.828, 463.560 189.037, 464.844 189.425 C 469.132 190.721, 475.801 191.953, 478.643 191.976 C 480.635 191.991, 482.091 192.641, 482.619 193.750 C 483.631 195.873, 484.431 328.812, 483.509 341.500 L 482.855 350.500 476.671 350.175 C 464.479 349.536, 432.704 357.585, 417.829 365.081 C 384.848 381.702, 366.608 411.571, 366.585 449 C 366.575 464.198, 368.114 471.939, 376.027 496.500 C 385.301 525.287, 385.577 530.334, 378.510 541.917 C 373.623 549.925, 373.241 552.332, 376.359 555.450 C 379.378 558.469, 380.324 558.535, 389.581 556.370 C 399.287 554.100, 403.350 554.979, 408.643 560.495 C 424.193 576.698, 424.678 627.459, 409.578 658.497 C 399.444 679.330, 386.409 686.742, 371.563 680.114 C 364.201 676.828, 359.006 676.365, 356.081 678.733 C 352.688 681.481, 353.138 685.071, 358.057 694.500 C 363.624 705.172, 363.354 711.396, 356.493 730.500 C 349.877 748.921, 348.091 754.945, 346.005 765.876 C 340.884 792.711, 343.440 819.657, 353.348 843.270 C 355.248 847.796, 357.062 853.959, 357.379 856.965 C 359.511 877.140, 385.222 905.229, 411.795 916.414 C 434.757 926.078, 467.629 929.685, 489.902 924.984 C 501.912 922.449, 505.964 922.487, 512.886 925.200 L 518.500 927.400 516.074 932.298 C 513.564 937.366, 512.286 946.021, 513.396 950.441 C 514.864 956.289, 524.221 958.233, 528.810 953.644 C 532.877 949.578, 532.786 937.589, 528.617 927.966 C 528.051 926.660, 529.999 926.253, 541.726 925.223 C 567.811 922.931, 602.629 914.575, 619.734 906.501 C 671.502 882.064, 695.903 823.744, 680.363 761.595 C 679.001 756.147, 675.411 744.729, 672.385 736.220 C 663.558 711.401, 663.270 707.139, 669.541 694.055 C 676.542 679.447, 672.296 675.504, 654.010 679.634 C 642.837 682.157, 637.425 680.610, 629.419 672.605 C 603.722 646.908, 595.545 571.594, 616.898 557.278 C 620.982 554.540, 624.744 554.420, 635.645 556.679 C 649.803 559.613, 652.464 555.046, 645 540.622 C 639.592 530.172, 639.584 524.361, 644.940 500.242 C 652.110 467.958, 652.784 451.387, 647.714 432 C 635.535 385.432, 597.875 354.952, 549.245 352.306 C 542.595 351.944, 537.593 351.215, 537.019 350.523 C 535.967 349.255, 534.911 332.596, 532.488 279 C 529.935 222.550, 528.262 198.413, 526.683 195.297 C 524.614 191.210, 524.155 187.573, 523.021 166.284 C 521.619 139.951, 522.238 136.029, 530.414 119.500 C 538.092 103.975, 538.991 100.934, 538.983 90.500 C 538.961 62.662, 516.299 40.393, 493.734 46.034 M 490.885 50.320 C 465.799 59.701, 466.299 100.923, 491.500 100.978 C 506.543 101.011, 514.984 93.081, 511.939 81.774 C 509.648 73.264, 499.968 67.897, 493.212 71.390 C 486.822 74.695, 487.728 84.711, 494.572 86.429 C 498.329 87.372, 500.322 85.371, 499.664 81.315 C 499.004 77.252, 500.347 76.230, 502.432 79.206 C 504.637 82.354, 504.387 84.703, 501.545 87.545 C 497.126 91.965, 489.610 89.912, 486.542 83.447 C 479.696 69.021, 501.980 60.564, 511.739 73.884 C 518.083 82.543, 516.568 95.682, 508.743 99.870 L 506.320 101.167 509.075 103.921 C 514.674 109.520, 514.025 119.274, 506.458 143.242 C 499.049 166.713, 496.527 185.716, 500.441 188.580 C 504.741 191.725, 507 190.492, 507 185 C 507 182.250, 507.450 180, 508 180 C 508.550 180, 509 182.198, 509 184.883 C 509 189.695, 510.045 190.910, 514.250 190.986 C 514.663 190.994, 515 187.850, 515 184 C 515 180.150, 515.391 177, 515.869 177 C 516.837 177, 517.972 182.756, 517.989 187.750 C 517.997 190.215, 518.437 191, 519.809 191 C 521.464 191, 521.547 190.383, 520.790 183.750 C 520.334 179.762, 519.858 167.500, 519.731 156.500 C 519.469 133.778, 519.427 133.982, 527.605 117.765 C 537.658 97.826, 538.600 83.897, 530.912 68.827 C 523.321 53.948, 504.479 45.236, 490.885 50.320 M 497.602 105.888 C 495.120 108.630, 492.370 116.454, 490.590 125.837 C 489.086 133.769, 489.099 134.099, 491.018 136.018 C 493.731 138.731, 493.503 141.587, 490.320 144.771 C 488 147.090, 487.538 148.600, 486.891 155.976 C 485.613 170.521, 485.822 178.965, 487.500 180.643 C 489.358 182.501, 489.446 186.814, 487.669 188.921 C 486.571 190.223, 486.486 201.567, 487.183 253.500 C 487.649 288.150, 487.747 319.875, 487.402 324 C 487.057 328.125, 486.819 343.200, 486.873 357.500 C 486.927 371.800, 486.311 400.600, 485.503 421.500 C 482.185 507.363, 481.151 554.781, 482.522 558.250 C 483.244 560.077, 491.363 560.805, 493.500 559.235 C 494.154 558.754, 494.605 516.822, 494.804 438 C 495.525 152.632, 495.033 169.356, 503.527 141.467 C 510.240 119.425, 510.947 110.914, 506.474 105.971 C 504.215 103.475, 499.823 103.434, 497.602 105.888 M 557.402 112.905 C 552.662 115.058, 552 116.320, 552 123.211 L 552 128.258 546.750 127.405 C 533.667 125.282, 528 126.685, 528 132.050 C 528 138.440, 535.597 140.321, 549.750 137.436 C 552.848 136.804, 553 136.915, 553 139.805 C 553 144.204, 553.888 145.891, 557.072 147.537 C 565.009 151.642, 576.975 146.668, 581.120 137.541 C 588.537 121.213, 573.500 105.594, 557.402 112.905 M 559 115.696 C 555.717 117.388, 555.469 117.865, 555 123.398 C 554.338 131.203, 553.380 131.747, 543.202 130.094 C 534.819 128.733, 531 129.486, 531 132.500 C 531 136.023, 536.149 136.558, 549.264 134.398 C 553.947 133.626, 556 135.158, 556 139.422 C 556 143.831, 557.583 145, 563.552 145 C 569.238 145, 573.743 142.624, 577.391 137.699 C 580.098 134.046, 580.280 124.603, 577.719 120.695 C 573.844 114.780, 565.236 112.481, 559 115.696 M 445.415 126.421 C 432.009 132.258, 437.443 153.411, 452.676 154.682 C 459.695 155.268, 462.379 153.531, 463 148 C 463.679 141.955, 466.009 140.794, 473.786 142.624 C 483.319 144.867, 484.712 144.596, 485.202 140.396 C 485.732 135.858, 484.596 135.374, 477.197 136.987 C 467.227 139.160, 466.013 139.256, 464.491 137.992 C 463.600 137.253, 463 135.054, 463 132.533 C 463 126.752, 460.864 124.989, 453.921 125.039 C 450.940 125.061, 447.112 125.683, 445.415 126.421 M 559 153.706 C 555.390 155.026, 553 158.376, 553 162.115 C 553 166.909, 552.390 167.223, 546.512 165.454 C 535.160 162.037, 525.869 165.130, 527.447 171.800 C 528.895 177.924, 536.823 179.777, 547.591 176.511 C 550.291 175.692, 552.585 175.017, 552.689 175.011 C 552.793 175.005, 553.196 177.126, 553.586 179.724 C 555.296 191.125, 568.710 194.461, 578.452 185.908 C 587.877 177.633, 585.149 160.151, 573.616 154.913 C 569.705 153.137, 562.242 152.521, 559 153.706 M 560.500 156.724 C 557.006 157.583, 556 159.129, 556 163.644 C 556 169.667, 553.661 170.744, 545.292 168.576 C 535.351 166, 531 166.608, 531 170.572 C 531 175.195, 537.423 176.090, 548.205 172.971 C 554.226 171.228, 557 173.156, 557 179.082 C 557 189.579, 574.349 190.052, 579.057 179.684 C 585.065 166.449, 574.436 153.298, 560.500 156.724 M 443 172.752 C 432.871 177.811, 432.922 193.351, 443.080 197.415 C 451.437 200.759, 458.942 198.374, 458.985 192.361 C 458.993 191.184, 459.824 189.204, 460.831 187.961 L 462.662 185.700 470.851 187.350 C 482.207 189.638, 482 189.682, 482 185 C 482 181.151, 481.877 181, 478.750 181.012 C 476.962 181.018, 473.025 181.688, 470 182.500 C 466.975 183.312, 463.938 183.982, 463.250 183.988 C 461.158 184.008, 458 180.149, 458 177.573 C 458 171.983, 449.808 169.350, 443 172.752 M 498.622 202.425 C 498.296 207.966, 497.735 290.383, 497.377 385.574 L 496.725 558.648 503.112 558.204 C 506.626 557.960, 509.673 557.604, 509.884 557.412 C 510.096 557.221, 509.696 524.538, 508.996 484.782 C 508.296 445.027, 507.448 363.232, 507.111 303.016 L 506.500 193.533 502.858 192.941 L 499.215 192.350 498.622 202.425 M 509.020 217.643 C 509.110 329.269, 512.673 557.171, 514.345 558.234 C 514.980 558.639, 517.862 558.976, 520.750 558.985 L 526 559 525.987 554.750 C 525.979 552.413, 525.535 539.250, 525 525.500 C 523.719 492.561, 519.341 348.405, 518.046 296.500 C 517.484 273.950, 516.792 249.200, 516.508 241.500 C 516.225 233.800, 515.955 219.963, 515.908 210.750 C 515.830 195.215, 515.692 194, 513.994 194 C 512.987 194, 511.452 193.727, 510.582 193.393 C 509.165 192.849, 509.002 195.382, 509.020 217.643 M 518.007 197.683 C 518.040 215.684, 526.954 506.651, 528.624 544.250 L 529.279 559 533.075 559 C 535.162 559, 538.093 558.535, 539.589 557.966 L 542.308 556.932 541.673 542.716 C 540.650 519.868, 537.138 455.191, 535.008 420 C 532.691 381.719, 532.266 359.241, 533.803 356.367 C 534.599 354.881, 534.542 353.308, 533.587 350.423 C 532.831 348.139, 531.799 336.053, 531.116 321.500 C 525.060 192.336, 525.382 196.095, 520.250 194.545 C 518.190 193.923, 518.001 194.188, 518.007 197.683 M 463.500 354.616 C 402.874 365.505, 372.028 395.611, 370.256 445.622 C 369.650 462.720, 371.299 471.750, 379.634 497 C 388.612 524.198, 388.938 530.755, 381.893 542.436 C 379.616 546.211, 378.010 550.053, 378.187 551.300 C 378.536 553.750, 380.571 553.896, 394.554 552.476 C 408.282 551.081, 416.060 558.933, 421.057 579.231 C 430.614 618.048, 416.015 671.844, 392.781 683.422 C 385.923 686.839, 380.523 686.732, 369.716 682.963 C 356.103 678.216, 354.380 680.125, 361 692.620 C 367.511 704.909, 367.009 711.369, 357.517 737.500 C 344.567 773.148, 343.408 806.998, 354.135 836.250 C 356.688 843.210, 356.981 843.265, 359.436 837.246 C 365.530 822.304, 389.890 808.837, 413.585 807.311 C 452.893 804.779, 491.923 843.020, 492.367 884.500 C 492.583 904.683, 484.462 910.911, 459.510 909.697 C 421.842 907.864, 383.930 888.402, 364.017 860.674 C 359.965 855.031, 359.563 855.174, 361.478 861.580 C 365.380 874.625, 381.193 894.109, 395.881 903.969 C 419.975 920.143, 458.062 927.663, 487.215 922.003 C 492.872 920.905, 499.664 920.005, 502.309 920.003 C 505.331 920.001, 506.883 919.620, 506.486 918.977 C 506.138 918.415, 505.718 902.552, 505.552 883.727 C 505.153 838.612, 502.358 817.976, 491.343 778.820 C 486.101 760.187, 481 740.166, 481 738.225 C 481 734.962, 485.787 732, 491.063 732 L 496.216 732 495.458 705.750 C 495.040 691.313, 494.692 678.938, 494.683 678.250 C 494.663 676.723, 493.394 676.699, 485.483 678.076 C 465.021 681.640, 467.458 662.362, 488.289 655.878 L 493.500 654.256 493.760 608.592 L 494.020 562.928 489.260 563.558 C 482.936 564.394, 479.395 561.820, 478.482 555.722 C 477.866 551.611, 480.089 469.646, 482.014 425.500 C 483.410 393.474, 483.297 355.697, 481.800 354.200 C 480.255 352.655, 473.575 352.807, 463.500 354.616 M 536.965 357.542 C 535.398 359.431, 536.018 381.838, 538.970 430 C 541.642 473.589, 545.236 540.756, 545.382 549.832 C 545.535 559.326, 543.118 562, 534.383 562 L 528.877 562 529.408 566.250 C 529.700 568.587, 530.419 586.475, 531.007 606 C 532.372 651.365, 532.593 654, 535.042 654 C 539.241 654, 547.974 658.206, 551.050 661.710 C 554.657 665.817, 554.787 672.202, 551.316 674.778 C 549.540 676.096, 548.339 676.056, 536.591 674.283 L 532.682 673.694 533.334 680.597 C 533.692 684.394, 533.989 697.063, 533.993 708.750 L 534 730 538.927 730 C 543.060 730, 544.189 730.425, 545.927 732.635 C 548.939 736.464, 548.611 741.129, 543.555 766.337 C 536.793 800.054, 535.570 814.134, 535.943 854 C 536.116 872.425, 536.312 893.800, 536.378 901.500 C 536.479 913.050, 536.193 916.097, 534.746 918.912 C 533.781 920.789, 533.114 922.448, 533.265 922.598 C 534.839 924.172, 580.337 916.156, 596.631 911.434 C 635.505 900.169, 660.575 877.833, 673.768 842.709 C 679.903 826.376, 681.389 817.660, 681.393 798 C 681.397 774.378, 679.455 765.531, 666.029 728 C 660.479 712.487, 660.550 704.456, 666.339 692.832 C 672.106 681.250, 670.067 679.099, 656.644 682.605 C 638.800 687.266, 627.120 680.467, 616.094 659 C 598.915 625.555, 596.059 580.568, 609.793 559.749 C 614.895 552.014, 621.399 550.174, 634.161 552.858 C 647.022 555.562, 648.416 554.034, 642.609 543.596 C 635.833 531.416, 635.772 526.398, 642.056 498 C 649.923 462.444, 649.494 443.157, 640.322 420.113 C 626.728 385.960, 600.518 364.360, 564.250 357.421 C 553.908 355.442, 538.652 355.510, 536.965 357.542 M 497 607.788 L 497 653.575 504.611 652.610 L 512.223 651.645 511.556 609.573 C 511.190 586.433, 510.654 566.263, 510.366 564.750 C 509.858 562.090, 509.631 562, 503.421 562 L 497 562 497 607.788 M 513.385 577.250 C 513.712 585.638, 514.260 605.831, 514.601 622.124 L 515.223 651.747 522.361 652.269 C 526.288 652.556, 529.587 652.713, 529.692 652.619 C 530.037 652.313, 526.857 564.536, 526.454 563.250 C 526.193 562.415, 523.860 562, 519.426 562 L 512.789 562 513.385 577.250 M 558.020 601.752 C 547.949 606.811, 547.497 622, 557.418 622 C 564.324 622, 566.446 614.088, 560.924 608.929 C 557.081 605.339, 557.833 604, 563.691 604 C 569.443 604, 573.794 608.162, 576.999 616.728 C 580.687 626.583, 581.137 630.666, 581.938 661.500 C 582.646 688.773, 582.918 692.063, 584.930 697.691 C 591.501 716.069, 609.552 721.856, 619.355 708.726 C 621.859 705.373, 621.973 698.415, 619.585 694.770 C 616.193 689.593, 606.599 689.144, 603.979 694.039 C 601.268 699.105, 604.681 707.812, 610.044 709.514 C 613.043 710.466, 612.375 711.839, 608.565 712.554 C 603.661 713.474, 598.674 711.489, 594.623 707.004 C 586.524 698.040, 585 690.338, 585 658.370 C 585 641.009, 584.592 632.913, 583.431 627.208 C 579.235 606.586, 568.935 596.268, 558.020 601.752 M 452.379 602.384 C 442.142 607.011, 436.634 626.725, 439.027 650.173 C 443.858 697.500, 438.293 717.039, 420 716.983 C 412.758 716.961, 412.018 715.830, 416.210 711.189 C 422.150 704.615, 422.395 698.290, 416.821 695.408 C 405.212 689.404, 398.187 706.811, 408.548 715.908 C 418.838 724.943, 432.503 720.923, 439.397 706.833 C 444.732 695.927, 445.758 685.499, 443.632 663.789 C 440.883 635.710, 441.590 623.780, 446.591 613.849 C 449.652 607.771, 453.248 605, 458.076 605 C 463.148 605, 463.784 606.469, 460.065 609.599 C 457.772 611.528, 457 613.019, 457 615.517 C 457 624.906, 469.028 624.910, 469.818 615.522 C 470.675 605.334, 461.367 598.322, 452.379 602.384 M 553.513 611.941 C 552.585 616.165, 554.484 619.195, 557.817 618.810 C 561.422 618.393, 561.971 614.663, 558.908 611.402 C 555.910 608.211, 554.297 608.372, 553.513 611.941 M 462.001 611.999 C 459.076 614.924, 459.696 618.407, 463.215 618.813 C 465.398 619.065, 466.052 618.639, 466.554 616.642 C 467.977 610.969, 465.528 608.472, 462.001 611.999 M 503 655.913 L 497.500 656.500 497.208 664.873 C 496.972 671.630, 497.179 673.145, 498.283 672.722 C 499.036 672.433, 502.655 671.875, 506.326 671.482 L 513 670.767 513 666.009 C 513 658.726, 512.005 654.974, 510.125 655.163 C 509.231 655.253, 506.025 655.590, 503 655.913 M 515 659.875 C 515 662.556, 515.281 666.156, 515.625 667.875 L 516.250 671 523.125 671 L 530 671 530 663.636 L 530 656.272 525.360 655.636 C 515.322 654.260, 515 654.392, 515 659.875 M 488.035 659.085 C 479.405 662.147, 472.030 670.499, 475.209 673.610 C 476.964 675.328, 480.338 675.617, 487.750 674.686 L 494 673.901 494 665.450 C 494 660.803, 493.887 657.033, 493.750 657.073 C 493.613 657.113, 491.041 658.019, 488.035 659.085 M 533 663.939 L 533 670.877 537.750 671.483 C 540.362 671.816, 543.900 672.302, 545.612 672.563 C 549.560 673.167, 551.489 671.090, 550.534 667.263 C 549.522 663.207, 547.371 661.283, 541.326 659.021 C 533.057 655.927, 533 655.961, 533 663.939 M 503.185 675.023 C 500.261 675.449, 497.665 676.002, 497.416 676.251 C 496.951 676.716, 498.889 729.695, 499.437 731.500 C 499.615 732.086, 502.690 732.363, 506.870 732.168 L 514 731.836 513.997 718.668 C 513.995 711.426, 513.699 698.413, 513.340 689.750 C 512.600 671.907, 513.694 673.493, 503.185 675.023 M 516.471 702.750 C 516.874 718.563, 517.362 731.667, 517.556 731.871 C 517.751 732.076, 520.855 731.927, 524.455 731.542 L 531 730.841 531 702.420 L 531 674 523.369 674 L 515.739 674 516.471 702.750 M 607.035 695.934 C 604.784 700.140, 607.850 705.866, 613.275 707.587 C 617.479 708.922, 619.717 700.896, 616.443 696.223 C 614.396 693.300, 608.541 693.120, 607.035 695.934 M 408.571 699.571 C 406.631 701.512, 406.535 708.803, 408.416 711.283 C 411.373 715.181, 419.199 704.439, 416.818 699.750 C 415.698 697.543, 410.708 697.435, 408.571 699.571 M 534.327 734.590 C 533.967 735.527, 534.253 737.691, 534.962 739.397 C 538.227 747.258, 536.217 754.156, 531.131 752.541 C 526.752 751.152, 526.313 742.475, 530.448 739.043 C 532.982 736.940, 531.103 733.729, 527.733 734.403 C 526.092 734.732, 523.006 735, 520.875 735 C 516.307 735, 515.627 737.439, 519 741.727 C 522.568 746.263, 521.068 754, 516.620 754 C 511.692 754, 509.039 745.975, 512.468 741.441 C 514.893 738.236, 514.467 734.641, 511.750 735.370 C 510.512 735.701, 507.137 735.979, 504.250 735.986 C 498.236 736.002, 497.276 737.993, 501 742.727 C 504.800 747.559, 503.238 755, 498.422 755 C 493.739 755, 491.854 746.902, 495.369 741.884 C 498.613 737.252, 497.654 736, 490.858 736 L 484.715 736 485.335 741.750 C 485.676 744.913, 487.541 753.125, 489.478 760 C 505.759 817.763, 509 838.970, 509 887.749 C 509 919.925, 509.031 920.081, 515.779 921.956 C 524.096 924.265, 528.924 922.981, 531.635 917.739 C 533.629 913.883, 533.774 905.752, 532.576 865 C 531.447 826.618, 533.549 798.096, 539.613 769.500 C 546.483 737.101, 546.447 733.717, 539.222 733.192 C 535.961 732.955, 534.831 733.278, 534.327 734.590 M 531.488 743.177 C 530.614 745.446, 531.263 749.500, 532.500 749.500 C 533.910 749.500, 534.327 745.405, 533.133 743.279 C 532.213 741.640, 532.084 741.632, 531.488 743.177 M 514.390 744.427 C 513.554 746.604, 514.347 750.293, 515.749 750.755 C 517.416 751.304, 518.365 748.592, 517.589 745.498 C 516.899 742.749, 515.246 742.196, 514.390 744.427 M 496.773 746.405 C 496.279 748.991, 497.503 752, 499.050 752 C 500.113 752, 500.326 748.013, 499.393 745.582 C 498.506 743.270, 497.300 743.649, 496.773 746.405 M 407.245 811.084 C 388.642 813.931, 368.852 825.529, 362.988 837.023 C 358.624 845.578, 359.051 848.618, 365.893 857.697 C 388.630 887.872, 425.666 906.340, 463.500 906.369 C 482.741 906.384, 488.195 902.375, 488.860 887.728 C 490.828 844.447, 448.568 804.762, 407.245 811.084 M 518.998 934.166 C 513.979 944.776, 515.479 953, 522.434 953 C 527.255 953, 528.520 950.863, 528.384 942.953 C 528.265 936.091, 525.797 929.011, 523.247 928.220 C 522.513 927.992, 520.755 930.451, 518.998 934.166" stroke="none" fill="#2a2512" fill-rule="evenodd"/>
</svg>